solid OpenSCAD_Model
  facet normal -0.281085 0.678598 0.678598
    outer loop
      vertex 40.7932 -30.7932 29.241
      vertex 25.3553 -55.6118 47.665
      vertex 42.4264 -31.4697 30.594
    endloop
  endfacet
  facet normal -0.281086 0.678599 0.678598
    outer loop
      vertex 25.3553 -55.6118 47.665
      vertex 40.7932 -30.7932 29.241
      vertex 23.7221 -54.9353 46.312
    endloop
  endfacet
  facet normal -0.281087 -0.678599 0.678597
    outer loop
      vertex 35.3553 -71.6674 37.665
      vertex 33.7221 -72.3439 36.312
      vertex 35.3553 -73.0204 36.312
    endloop
  endfacet
  facet normal 0.382685 -0.923879 0
    outer loop
      vertex 35.3553 -73.0204 34.3986
      vertex 36.9885 -72.3439 36.312
      vertex 35.3553 -73.0204 36.312
    endloop
  endfacet
  facet normal 0.382685 -0.923879 0
    outer loop
      vertex 36.9885 -72.3439 36.312
      vertex 35.3553 -73.0204 34.3986
      vertex 36.9885 -72.3439 34.3986
    endloop
  endfacet
  facet normal 0.678598 -0.281086 0.678598
    outer loop
      vertex 37.665 -70.7107 36.312
      vertex 36.312 -70.7107 37.665
      vertex 36.9885 -72.3439 36.312
    endloop
  endfacet
  facet normal -0.678598 0.281085 0.678598
    outer loop
      vertex 23.7221 -54.9353 46.312
      vertex -10.42 -54.9353 12.1699
      vertex -10.2832 -56.5304 12.9674
    endloop
  endfacet
  facet normal 0.281085 -0.678601 0.678596
    outer loop
      vertex 36.0318 -71.3872 37.665
      vertex 35.3553 -71.6674 37.665
      vertex 36.9885 -72.3439 36.312
    endloop
  endfacet
  facet normal -0.281085 -0.678599 0.678598
    outer loop
      vertex 33.7221 -72.3439 36.312
      vertex 25.3553 -57.5252 47.665
      vertex 23.7221 -58.2017 46.312
    endloop
  endfacet
  facet normal -0.281087 -0.678599 0.678597
    outer loop
      vertex 25.3553 -57.5252 47.665
      vertex 33.7221 -72.3439 36.312
      vertex 35.3553 -71.6674 37.665
    endloop
  endfacet
  facet normal -0.678599 -0.281084 0.678597
    outer loop
      vertex 24.3986 -56.5685 47.665
      vertex 23.7221 -58.2017 46.312
      vertex 24.6788 -57.245 47.665
    endloop
  endfacet
  facet normal -0.357408 -0.862855 0.357408
    outer loop
      vertex 33.7221 -72.3439 36.312
      vertex -0.419999 -72.3439 2.16991
      vertex 1.2132 -73.0204 2.16991
    endloop
  endfacet
  facet normal -0.281084 0.6786 0.678597
    outer loop
      vertex 25.3553 -55.6118 47.665
      vertex 23.7221 -54.9353 46.312
      vertex 24.6788 -55.892 47.665
    endloop
  endfacet
  facet normal -0.678599 0.281082 0.678599
    outer loop
      vertex -10.2674 -56.5685 12.999
      vertex 23.7221 -54.9353 46.312
      vertex -10.2832 -56.5304 12.9674
    endloop
  endfacet
  facet normal -0.678598 0.281085 0.678598
    outer loop
      vertex 23.7221 -54.9353 46.312
      vertex -10.2674 -56.5685 12.999
      vertex 24.3986 -56.5685 47.665
    endloop
  endfacet
  facet normal -0.678599 -0.281082 0.678599
    outer loop
      vertex 23.7221 -58.2017 46.312
      vertex -10.2674 -56.5685 12.999
      vertex -10.2832 -56.6067 12.9674
    endloop
  endfacet
  facet normal -0.678598 -0.281085 0.678598
    outer loop
      vertex -10.2674 -56.5685 12.999
      vertex 23.7221 -58.2017 46.312
      vertex 24.3986 -56.5685 47.665
    endloop
  endfacet
  facet normal 0.707106 7.04863e-07 0.707107
    outer loop
      vertex 53.3831 -46.5685 20.594
      vertex 37.665 -70.7107 36.312
      vertex 54.7361 -46.5685 19.241
    endloop
  endfacet
  facet normal 0.707107 2.79325e-08 0.707107
    outer loop
      vertex 26.312 -56.5685 47.665
      vertex 53.3831 -46.5685 20.594
      vertex 43.3831 -32.4264 30.594
    endloop
  endfacet
  facet normal 0.707107 3.08473e-08 0.707107
    outer loop
      vertex 53.3831 -46.5685 20.594
      vertex 26.312 -56.5685 47.665
      vertex 37.665 -70.7107 36.312
    endloop
  endfacet
  facet normal 0.707107 0 0.707107
    outer loop
      vertex 37.665 -70.7107 36.312
      vertex 26.312 -56.5685 47.665
      vertex 36.312 -70.7107 37.665
    endloop
  endfacet
  facet normal 0.5 -0.707107 -0.5
    outer loop
      vertex 36.9885 -72.3439 34.3986
      vertex 2.84641 -72.3439 0.256495
      vertex 32.8464 -58.2017 10.2565
    endloop
  endfacet
  facet normal 0.816497 -0.57735 0
    outer loop
      vertex 36.9885 -72.3439 34.3986
      vertex 54.0596 -48.2017 19.241
      vertex 36.9885 -72.3439 36.312
    endloop
  endfacet
  facet normal 0.816497 -0.57735 0
    outer loop
      vertex 54.0596 -48.2017 19.241
      vertex 36.9885 -72.3439 34.3986
      vertex 54.0596 -48.2017 17.3276
    endloop
  endfacet
  facet normal -0.5 0.707107 0.5
    outer loop
      vertex 40.7932 -30.7932 29.241
      vertex 19.58 -40.7932 22.1699
      vertex 23.7221 -54.9353 46.312
    endloop
  endfacet
  facet normal 0 0 1
    outer loop
      vertex 26.0318 -55.892 47.665
      vertex 26.0318 -57.245 47.665
      vertex 26.312 -56.5685 47.665
    endloop
  endfacet
  facet normal 0 0 1
    outer loop
      vertex 25.3553 -55.6118 47.665
      vertex 26.0318 -57.245 47.665
      vertex 26.0318 -55.892 47.665
    endloop
  endfacet
  facet normal 0 0 1
    outer loop
      vertex 25.3553 -55.6118 47.665
      vertex 25.3553 -57.5252 47.665
      vertex 26.0318 -57.245 47.665
    endloop
  endfacet
  facet normal -0 0 1
    outer loop
      vertex 24.6788 -55.892 47.665
      vertex 25.3553 -57.5252 47.665
      vertex 25.3553 -55.6118 47.665
    endloop
  endfacet
  facet normal 0 0 1
    outer loop
      vertex 24.6788 -55.892 47.665
      vertex 24.6788 -57.245 47.665
      vertex 25.3553 -57.5252 47.665
    endloop
  endfacet
  facet normal 0 -0 1
    outer loop
      vertex 24.6788 -57.245 47.665
      vertex 24.6788 -55.892 47.665
      vertex 24.3986 -56.5685 47.665
    endloop
  endfacet
  facet normal -0.678599 0.281084 0.678597
    outer loop
      vertex 24.6788 -55.892 47.665
      vertex 23.7221 -54.9353 46.312
      vertex 24.3986 -56.5685 47.665
    endloop
  endfacet
  facet normal 0.194943 -0.470636 0.860523
    outer loop
      vertex 26.0318 -57.245 47.665
      vertex 35.3553 -71.6674 37.665
      vertex 36.0318 -71.3872 37.665
    endloop
  endfacet
  facet normal 0.194943 -0.470636 0.860523
    outer loop
      vertex 35.3553 -71.6674 37.665
      vertex 26.0318 -57.245 47.665
      vertex 25.3553 -57.5252 47.665
    endloop
  endfacet
  facet normal 0.520841 -0.215739 0.825942
    outer loop
      vertex 26.0318 -57.245 47.665
      vertex 36.312 -70.7107 37.665
      vertex 26.312 -56.5685 47.665
    endloop
  endfacet
  facet normal 0.520842 -0.215738 0.825942
    outer loop
      vertex 36.312 -70.7107 37.665
      vertex 26.0318 -57.245 47.665
      vertex 36.0318 -71.3872 37.665
    endloop
  endfacet
  facet normal 0.678601 -0.281083 0.678596
    outer loop
      vertex 36.312 -70.7107 37.665
      vertex 36.0318 -71.3872 37.665
      vertex 36.9885 -72.3439 36.312
    endloop
  endfacet
  facet normal 0.281087 -0.678599 0.678597
    outer loop
      vertex 35.3553 -71.6674 37.665
      vertex 35.3553 -73.0204 36.312
      vertex 36.9885 -72.3439 36.312
    endloop
  endfacet
  facet normal 0.520842 0.215739 0.825942
    outer loop
      vertex 26.0318 -55.892 47.665
      vertex 43.3831 -32.4264 30.594
      vertex 43.1029 -31.7499 30.594
    endloop
  endfacet
  facet normal 0.520842 0.215739 0.825942
    outer loop
      vertex 43.3831 -32.4264 30.594
      vertex 26.0318 -55.892 47.665
      vertex 26.312 -56.5685 47.665
    endloop
  endfacet
  facet normal 0.194943 0.470636 0.860523
    outer loop
      vertex 42.4264 -31.4697 30.594
      vertex 26.0318 -55.892 47.665
      vertex 43.1029 -31.7499 30.594
    endloop
  endfacet
  facet normal 0.194943 0.470636 0.860523
    outer loop
      vertex 26.0318 -55.892 47.665
      vertex 42.4264 -31.4697 30.594
      vertex 25.3553 -55.6118 47.665
    endloop
  endfacet
  facet normal -0.5 0.707107 0.5
    outer loop
      vertex 19.58 -40.7932 22.1699
      vertex -10.42 -54.9353 12.1699
      vertex 23.7221 -54.9353 46.312
    endloop
  endfacet
  facet normal -0.281084 -0.6786 0.678597
    outer loop
      vertex 24.6788 -57.245 47.665
      vertex 23.7221 -58.2017 46.312
      vertex 25.3553 -57.5252 47.665
    endloop
  endfacet
  facet normal 0.357408 -0.862855 -0.357408
    outer loop
      vertex 35.3553 -73.0204 34.3986
      vertex 2.84641 -72.3439 0.256495
      vertex 36.9885 -72.3439 34.3986
    endloop
  endfacet
  facet normal 0.357408 -0.862855 -0.357408
    outer loop
      vertex 2.84641 -72.3439 0.256495
      vertex 35.3553 -73.0204 34.3986
      vertex -1.2132 -73.0204 -2.16991
    endloop
  endfacet
  facet normal 0 -1 0
    outer loop
      vertex 1.2132 -73.0204 2.16991
      vertex 35.3553 -73.0204 34.3986
      vertex 35.3553 -73.0204 36.312
    endloop
  endfacet
  facet normal 0 -1 -0
    outer loop
      vertex 1.2132 -73.0204 2.16991
      vertex -1.2132 -73.0204 -2.16991
      vertex 35.3553 -73.0204 34.3986
    endloop
  endfacet
  facet normal 0 -1 0
    outer loop
      vertex -35.3553 -73.0204 -34.3986
      vertex -1.2132 -73.0204 -2.16991
      vertex 1.2132 -73.0204 2.16991
    endloop
  endfacet
  facet normal 0 -1 0
    outer loop
      vertex -1.2132 -73.0204 -2.16991
      vertex -35.3553 -73.0204 -34.3986
      vertex -35.3553 -73.0204 -36.312
    endloop
  endfacet
  facet normal -0.357408 -0.862855 0.357408
    outer loop
      vertex 33.7221 -72.3439 36.312
      vertex 1.2132 -73.0204 2.16991
      vertex 35.3553 -73.0204 36.312
    endloop
  endfacet
  facet normal 0.862856 -0.357409 0.357404
    outer loop
      vertex 37.665 -70.7107 36.312
      vertex 54.0596 -48.2017 19.241
      vertex 54.7361 -46.5685 19.241
    endloop
  endfacet
  facet normal 0.862856 -0.357409 0.357404
    outer loop
      vertex 54.0596 -48.2017 19.241
      vertex 37.665 -70.7107 36.312
      vertex 36.9885 -72.3439 36.312
    endloop
  endfacet
  facet normal -0.5 -0.707107 0.5
    outer loop
      vertex -10.42 -58.2017 12.1699
      vertex 33.7221 -72.3439 36.312
      vertex 23.7221 -58.2017 46.312
    endloop
  endfacet
  facet normal -0.5 -0.707107 0.5
    outer loop
      vertex 33.7221 -72.3439 36.312
      vertex -10.42 -58.2017 12.1699
      vertex -0.419999 -72.3439 2.16991
    endloop
  endfacet
  facet normal -0.678598 -0.281085 0.678598
    outer loop
      vertex -10.2832 -56.6067 12.9674
      vertex -10.42 -58.2017 12.1699
      vertex 23.7221 -58.2017 46.312
    endloop
  endfacet
  facet normal 0.5 -0.707107 -0.5
    outer loop
      vertex 36.9885 -72.3439 34.3986
      vertex 32.8464 -58.2017 10.2565
      vertex 54.0596 -48.2017 17.3276
    endloop
  endfacet
  facet normal -0.5 -0.707107 0.5
    outer loop
      vertex -32.8464 -58.2017 -10.2565
      vertex -54.0596 -48.2017 -17.3276
      vertex -36.9885 -72.3439 -34.3986
    endloop
  endfacet
  facet normal -0.357408 -0.862855 0.357408
    outer loop
      vertex -35.3553 -73.0204 -34.3986
      vertex -2.84641 -72.3439 -0.256495
      vertex -36.9885 -72.3439 -34.3986
    endloop
  endfacet
  facet normal -0.357408 -0.862855 0.357408
    outer loop
      vertex -2.84641 -72.3439 -0.256495
      vertex -35.3553 -73.0204 -34.3986
      vertex 1.2132 -73.0204 2.16991
    endloop
  endfacet
  facet normal 0.357408 -0.862855 -0.357408
    outer loop
      vertex -1.2132 -73.0204 -2.16991
      vertex -33.7221 -72.3439 -36.312
      vertex 0.419999 -72.3439 -2.16991
    endloop
  endfacet
  facet normal -0.520842 -0.215738 -0.825942
    outer loop
      vertex -36.312 -70.7107 -37.665
      vertex -26.0318 -57.245 -47.665
      vertex -36.0318 -71.3872 -37.665
    endloop
  endfacet
  facet normal -0.520841 -0.215739 -0.825942
    outer loop
      vertex -26.0318 -57.245 -47.665
      vertex -36.312 -70.7107 -37.665
      vertex -26.312 -56.5685 -47.665
    endloop
  endfacet
  facet normal 0.5 -0.707107 -0.5
    outer loop
      vertex -33.7221 -72.3439 -36.312
      vertex 10.42 -58.2017 -12.1699
      vertex 0.419999 -72.3439 -2.16991
    endloop
  endfacet
  facet normal 0.5 -0.707107 -0.5
    outer loop
      vertex 10.42 -58.2017 -12.1699
      vertex -33.7221 -72.3439 -36.312
      vertex -23.7221 -58.2017 -46.312
    endloop
  endfacet
  facet normal -0.281085 -0.678601 -0.678596
    outer loop
      vertex -35.3553 -71.6674 -37.665
      vertex -36.9885 -72.3439 -36.312
      vertex -36.0318 -71.3872 -37.665
    endloop
  endfacet
  facet normal -0.382685 -0.923879 0
    outer loop
      vertex -36.9885 -72.3439 -36.312
      vertex -35.3553 -73.0204 -34.3986
      vertex -36.9885 -72.3439 -34.3986
    endloop
  endfacet
  facet normal -0.382685 -0.923879 -0
    outer loop
      vertex -35.3553 -73.0204 -34.3986
      vertex -36.9885 -72.3439 -36.312
      vertex -35.3553 -73.0204 -36.312
    endloop
  endfacet
  facet normal -0.816497 -0.57735 -0
    outer loop
      vertex -36.9885 -72.3439 -34.3986
      vertex -54.0596 -48.2017 -19.241
      vertex -36.9885 -72.3439 -36.312
    endloop
  endfacet
  facet normal -0.816497 -0.57735 0
    outer loop
      vertex -54.0596 -48.2017 -19.241
      vertex -36.9885 -72.3439 -34.3986
      vertex -54.0596 -48.2017 -17.3276
    endloop
  endfacet
  facet normal 0.357408 -0.862855 -0.357408
    outer loop
      vertex -1.2132 -73.0204 -2.16991
      vertex -35.3553 -73.0204 -36.312
      vertex -33.7221 -72.3439 -36.312
    endloop
  endfacet
  facet normal 0 0 -1
    outer loop
      vertex -24.6788 -57.245 -47.665
      vertex -24.6788 -55.892 -47.665
      vertex -24.3986 -56.5685 -47.665
    endloop
  endfacet
  facet normal 0 0 -1
    outer loop
      vertex -25.3553 -57.5252 -47.665
      vertex -24.6788 -55.892 -47.665
      vertex -24.6788 -57.245 -47.665
    endloop
  endfacet
  facet normal 0 0 -1
    outer loop
      vertex -25.3553 -57.5252 -47.665
      vertex -25.3553 -55.6118 -47.665
      vertex -24.6788 -55.892 -47.665
    endloop
  endfacet
  facet normal 0 0 -1
    outer loop
      vertex -26.0318 -57.245 -47.665
      vertex -25.3553 -55.6118 -47.665
      vertex -25.3553 -57.5252 -47.665
    endloop
  endfacet
  facet normal 0 0 -1
    outer loop
      vertex -26.0318 -57.245 -47.665
      vertex -26.0318 -55.892 -47.665
      vertex -25.3553 -55.6118 -47.665
    endloop
  endfacet
  facet normal 0 -0 -1
    outer loop
      vertex -26.0318 -55.892 -47.665
      vertex -26.0318 -57.245 -47.665
      vertex -26.312 -56.5685 -47.665
    endloop
  endfacet
  facet normal 0.678598 -0.281085 -0.678598
    outer loop
      vertex 10.42 -58.2017 -12.1699
      vertex -23.7221 -58.2017 -46.312
      vertex 10.2832 -56.6067 -12.9674
    endloop
  endfacet
  facet normal -0.5 -0.707107 0.5
    outer loop
      vertex -32.8464 -58.2017 -10.2565
      vertex -36.9885 -72.3439 -34.3986
      vertex -2.84641 -72.3439 -0.256495
    endloop
  endfacet
  facet normal 0.281087 -0.678599 -0.678597
    outer loop
      vertex -33.7221 -72.3439 -36.312
      vertex -35.3553 -73.0204 -36.312
      vertex -35.3553 -71.6674 -37.665
    endloop
  endfacet
  facet normal -0.281087 -0.678599 -0.678597
    outer loop
      vertex -35.3553 -73.0204 -36.312
      vertex -36.9885 -72.3439 -36.312
      vertex -35.3553 -71.6674 -37.665
    endloop
  endfacet
  facet normal -0.862856 -0.357409 -0.357404
    outer loop
      vertex -37.665 -70.7107 -36.312
      vertex -54.0596 -48.2017 -19.241
      vertex -54.7361 -46.5685 -19.241
    endloop
  endfacet
  facet normal -0.862856 -0.357409 -0.357404
    outer loop
      vertex -54.0596 -48.2017 -19.241
      vertex -37.665 -70.7107 -36.312
      vertex -36.9885 -72.3439 -36.312
    endloop
  endfacet
  facet normal -0.678601 -0.281083 -0.678596
    outer loop
      vertex -36.0318 -71.3872 -37.665
      vertex -36.9885 -72.3439 -36.312
      vertex -36.312 -70.7107 -37.665
    endloop
  endfacet
  facet normal -0.194943 -0.470636 -0.860523
    outer loop
      vertex -35.3553 -71.6674 -37.665
      vertex -26.0318 -57.245 -47.665
      vertex -25.3553 -57.5252 -47.665
    endloop
  endfacet
  facet normal -0.194943 -0.470636 -0.860523
    outer loop
      vertex -26.0318 -57.245 -47.665
      vertex -35.3553 -71.6674 -37.665
      vertex -36.0318 -71.3872 -37.665
    endloop
  endfacet
  facet normal 0.281087 -0.678599 -0.678597
    outer loop
      vertex -25.3553 -57.5252 -47.665
      vertex -33.7221 -72.3439 -36.312
      vertex -35.3553 -71.6674 -37.665
    endloop
  endfacet
  facet normal 0.281085 -0.678599 -0.678598
    outer loop
      vertex -33.7221 -72.3439 -36.312
      vertex -25.3553 -57.5252 -47.665
      vertex -23.7221 -58.2017 -46.312
    endloop
  endfacet
  facet normal 0.678599 -0.281082 -0.678599
    outer loop
      vertex -23.7221 -58.2017 -46.312
      vertex 10.2674 -56.5685 -12.999
      vertex 10.2832 -56.6067 -12.9674
    endloop
  endfacet
  facet normal 0.678598 -0.281085 -0.678598
    outer loop
      vertex 10.2674 -56.5685 -12.999
      vertex -23.7221 -58.2017 -46.312
      vertex -24.3986 -56.5685 -47.665
    endloop
  endfacet
  facet normal 0.5 0.707107 -0.5
    outer loop
      vertex -19.58 -40.7932 -22.1699
      vertex -23.7221 -54.9353 -46.312
      vertex -40.7932 -30.7932 -29.241
    endloop
  endfacet
  facet normal 0.5 0.707107 -0.5
    outer loop
      vertex -23.7221 -54.9353 -46.312
      vertex -19.58 -40.7932 -22.1699
      vertex 10.42 -54.9353 -12.1699
    endloop
  endfacet
  facet normal 0.678598 0.281085 -0.678598
    outer loop
      vertex 10.2832 -56.5304 -12.9674
      vertex -23.7221 -54.9353 -46.312
      vertex 10.42 -54.9353 -12.1699
    endloop
  endfacet
  facet normal 0.678599 -0.281084 -0.678597
    outer loop
      vertex -23.7221 -58.2017 -46.312
      vertex -24.6788 -57.245 -47.665
      vertex -24.3986 -56.5685 -47.665
    endloop
  endfacet
  facet normal 0.281084 -0.6786 -0.678597
    outer loop
      vertex -23.7221 -58.2017 -46.312
      vertex -25.3553 -57.5252 -47.665
      vertex -24.6788 -57.245 -47.665
    endloop
  endfacet
  facet normal -0.678598 -0.281086 -0.678598
    outer loop
      vertex -36.9885 -72.3439 -36.312
      vertex -37.665 -70.7107 -36.312
      vertex -36.312 -70.7107 -37.665
    endloop
  endfacet
  facet normal 0.281086 0.678599 -0.678598
    outer loop
      vertex -25.3553 -55.6118 -47.665
      vertex -40.7932 -30.7932 -29.241
      vertex -23.7221 -54.9353 -46.312
    endloop
  endfacet
  facet normal 0.281085 0.678598 -0.678598
    outer loop
      vertex -40.7932 -30.7932 -29.241
      vertex -25.3553 -55.6118 -47.665
      vertex -42.4264 -31.4697 -30.594
    endloop
  endfacet
  facet normal 0.678599 0.281084 -0.678597
    outer loop
      vertex -24.3986 -56.5685 -47.665
      vertex -24.6788 -55.892 -47.665
      vertex -23.7221 -54.9353 -46.312
    endloop
  endfacet
  facet normal 0.678599 0.281082 -0.678599
    outer loop
      vertex 10.2674 -56.5685 -12.999
      vertex -23.7221 -54.9353 -46.312
      vertex 10.2832 -56.5304 -12.9674
    endloop
  endfacet
  facet normal 0.678598 0.281085 -0.678598
    outer loop
      vertex -23.7221 -54.9353 -46.312
      vertex 10.2674 -56.5685 -12.999
      vertex -24.3986 -56.5685 -47.665
    endloop
  endfacet
  facet normal -0.707107 0 -0.707107
    outer loop
      vertex -37.665 -70.7107 -36.312
      vertex -26.312 -56.5685 -47.665
      vertex -36.312 -70.7107 -37.665
    endloop
  endfacet
  facet normal -0.707107 3.08473e-08 -0.707107
    outer loop
      vertex -53.3831 -46.5685 -20.594
      vertex -26.312 -56.5685 -47.665
      vertex -37.665 -70.7107 -36.312
    endloop
  endfacet
  facet normal -0.707107 2.79325e-08 -0.707107
    outer loop
      vertex -26.312 -56.5685 -47.665
      vertex -50.4542 -42.4264 -23.5229
      vertex -43.3831 -32.4264 -30.594
    endloop
  endfacet
  facet normal -0.707107 2.79325e-08 -0.707107
    outer loop
      vertex -26.312 -56.5685 -47.665
      vertex -53.3831 -46.5685 -20.594
      vertex -50.4542 -42.4264 -23.5229
    endloop
  endfacet
  facet normal -0.707106 7.04863e-07 -0.707107
    outer loop
      vertex -53.3831 -46.5685 -20.594
      vertex -37.665 -70.7107 -36.312
      vertex -54.7361 -46.5685 -19.241
    endloop
  endfacet
  facet normal -0.194943 0.470636 -0.860523
    outer loop
      vertex -26.0318 -55.892 -47.665
      vertex -42.4264 -31.4697 -30.594
      vertex -25.3553 -55.6118 -47.665
    endloop
  endfacet
  facet normal -0.194943 0.470636 -0.860523
    outer loop
      vertex -42.4264 -31.4697 -30.594
      vertex -26.0318 -55.892 -47.665
      vertex -43.1029 -31.7499 -30.594
    endloop
  endfacet
  facet normal -0.520842 0.215739 -0.825942
    outer loop
      vertex -43.3831 -32.4264 -30.594
      vertex -26.0318 -55.892 -47.665
      vertex -26.312 -56.5685 -47.665
    endloop
  endfacet
  facet normal -0.520842 0.215739 -0.825942
    outer loop
      vertex -26.0318 -55.892 -47.665
      vertex -43.3831 -32.4264 -30.594
      vertex -43.1029 -31.7499 -30.594
    endloop
  endfacet
  facet normal 0.281084 0.6786 -0.678597
    outer loop
      vertex -24.6788 -55.892 -47.665
      vertex -25.3553 -55.6118 -47.665
      vertex -23.7221 -54.9353 -46.312
    endloop
  endfacet
  facet normal 0.5 0.707107 -0.5
    outer loop
      vertex 54.0596 48.2017 17.3276
      vertex 32.8464 58.2017 10.2565
      vertex 36.9885 72.3439 34.3986
    endloop
  endfacet
  facet normal 0.678598 0.281086 0.678598
    outer loop
      vertex 36.9885 72.3439 36.312
      vertex 36.312 70.7107 37.665
      vertex 37.665 70.7107 36.312
    endloop
  endfacet
  facet normal 0.678601 0.281083 0.678596
    outer loop
      vertex 36.9885 72.3439 36.312
      vertex 36.0318 71.3872 37.665
      vertex 36.312 70.7107 37.665
    endloop
  endfacet
  facet normal -0.5 0.707107 0.5
    outer loop
      vertex 33.7221 72.3439 36.312
      vertex -10.42 58.2017 12.1699
      vertex 23.7221 58.2017 46.312
    endloop
  endfacet
  facet normal -0.5 0.707107 0.5
    outer loop
      vertex -10.42 58.2017 12.1699
      vertex 33.7221 72.3439 36.312
      vertex -0.419999 72.3439 2.16991
    endloop
  endfacet
  facet normal -0.678599 -0.281082 0.678599
    outer loop
      vertex 23.7221 54.9353 46.312
      vertex -10.2674 56.5685 12.999
      vertex -10.2832 56.5304 12.9674
    endloop
  endfacet
  facet normal -0.678598 -0.281085 0.678598
    outer loop
      vertex -10.2674 56.5685 12.999
      vertex 23.7221 54.9353 46.312
      vertex 24.3986 56.5685 47.665
    endloop
  endfacet
  facet normal 0.862856 0.357409 0.357404
    outer loop
      vertex 37.665 70.7107 36.312
      vertex 54.0596 48.2017 19.241
      vertex 36.9885 72.3439 36.312
    endloop
  endfacet
  facet normal 0.862856 0.357409 0.357404
    outer loop
      vertex 54.0596 48.2017 19.241
      vertex 37.665 70.7107 36.312
      vertex 54.7361 46.5685 19.241
    endloop
  endfacet
  facet normal 0.816497 0.57735 0
    outer loop
      vertex 54.0596 48.2017 19.241
      vertex 36.9885 72.3439 34.3986
      vertex 36.9885 72.3439 36.312
    endloop
  endfacet
  facet normal 0.816497 0.57735 0
    outer loop
      vertex 36.9885 72.3439 34.3986
      vertex 54.0596 48.2017 19.241
      vertex 54.0596 48.2017 17.3276
    endloop
  endfacet
  facet normal 0.5 0.707107 -0.5
    outer loop
      vertex 32.8464 58.2017 10.2565
      vertex 2.84641 72.3439 0.256495
      vertex 36.9885 72.3439 34.3986
    endloop
  endfacet
  facet normal -0.357408 0.862855 0.357408
    outer loop
      vertex 1.2132 73.0204 2.16991
      vertex -0.419999 72.3439 2.16991
      vertex 33.7221 72.3439 36.312
    endloop
  endfacet
  facet normal -0.678599 0.281084 0.678597
    outer loop
      vertex 24.6788 57.245 47.665
      vertex 23.7221 58.2017 46.312
      vertex 24.3986 56.5685 47.665
    endloop
  endfacet
  facet normal -0.5 -0.707107 0.5
    outer loop
      vertex 23.7221 54.9353 46.312
      vertex 19.58 40.7932 22.1699
      vertex 40.7932 30.7932 29.241
    endloop
  endfacet
  facet normal -0.5 -0.707107 0.5
    outer loop
      vertex 19.58 40.7932 22.1699
      vertex 23.7221 54.9353 46.312
      vertex -10.42 54.9353 12.1699
    endloop
  endfacet
  facet normal 0.194943 0.470636 0.860523
    outer loop
      vertex 35.3553 71.6674 37.665
      vertex 26.0318 57.245 47.665
      vertex 36.0318 71.3872 37.665
    endloop
  endfacet
  facet normal 0.194943 0.470636 0.860523
    outer loop
      vertex 26.0318 57.245 47.665
      vertex 35.3553 71.6674 37.665
      vertex 25.3553 57.5252 47.665
    endloop
  endfacet
  facet normal 0.281085 0.678601 0.678596
    outer loop
      vertex 36.9885 72.3439 36.312
      vertex 35.3553 71.6674 37.665
      vertex 36.0318 71.3872 37.665
    endloop
  endfacet
  facet normal 0.707107 -2.79325e-08 0.707107
    outer loop
      vertex 26.312 56.5685 47.665
      vertex 50.4542 42.4264 23.5229
      vertex 53.3831 46.5685 20.594
    endloop
  endfacet
  facet normal 0.707107 -2.79325e-08 0.707107
    outer loop
      vertex 50.4542 42.4264 23.5229
      vertex 26.312 56.5685 47.665
      vertex 43.3831 32.4264 30.594
    endloop
  endfacet
  facet normal 0.707107 0 0.707107
    outer loop
      vertex 26.312 56.5685 47.665
      vertex 37.665 70.7107 36.312
      vertex 36.312 70.7107 37.665
    endloop
  endfacet
  facet normal 0.707107 -3.08473e-08 0.707107
    outer loop
      vertex 53.3831 46.5685 20.594
      vertex 37.665 70.7107 36.312
      vertex 26.312 56.5685 47.665
    endloop
  endfacet
  facet normal 0.707106 -7.04863e-07 0.707107
    outer loop
      vertex 37.665 70.7107 36.312
      vertex 53.3831 46.5685 20.594
      vertex 54.7361 46.5685 19.241
    endloop
  endfacet
  facet normal 0.382685 0.923879 -0
    outer loop
      vertex 36.9885 72.3439 34.3986
      vertex 35.3553 73.0204 36.312
      vertex 36.9885 72.3439 36.312
    endloop
  endfacet
  facet normal 0.382685 0.923879 0
    outer loop
      vertex 35.3553 73.0204 36.312
      vertex 36.9885 72.3439 34.3986
      vertex 35.3553 73.0204 34.3986
    endloop
  endfacet
  facet normal -0.678599 -0.281084 0.678597
    outer loop
      vertex 24.3986 56.5685 47.665
      vertex 23.7221 54.9353 46.312
      vertex 24.6788 55.892 47.665
    endloop
  endfacet
  facet normal -0.281087 0.678599 0.678597
    outer loop
      vertex 33.7221 72.3439 36.312
      vertex 25.3553 57.5252 47.665
      vertex 35.3553 71.6674 37.665
    endloop
  endfacet
  facet normal -0.281085 0.678599 0.678598
    outer loop
      vertex 25.3553 57.5252 47.665
      vertex 33.7221 72.3439 36.312
      vertex 23.7221 58.2017 46.312
    endloop
  endfacet
  facet normal -0.357408 0.862855 0.357408
    outer loop
      vertex 35.3553 73.0204 36.312
      vertex 1.2132 73.0204 2.16991
      vertex 33.7221 72.3439 36.312
    endloop
  endfacet
  facet normal -0.678598 -0.281085 0.678598
    outer loop
      vertex -10.2832 56.5304 12.9674
      vertex -10.42 54.9353 12.1699
      vertex 23.7221 54.9353 46.312
    endloop
  endfacet
  facet normal 0.520842 -0.215739 0.825942
    outer loop
      vertex 26.0318 55.892 47.665
      vertex 43.3831 32.4264 30.594
      vertex 26.312 56.5685 47.665
    endloop
  endfacet
  facet normal 0.520842 -0.215739 0.825942
    outer loop
      vertex 43.3831 32.4264 30.594
      vertex 26.0318 55.892 47.665
      vertex 43.1029 31.7499 30.594
    endloop
  endfacet
  facet normal 0.520842 0.215738 0.825942
    outer loop
      vertex 26.0318 57.245 47.665
      vertex 36.312 70.7107 37.665
      vertex 36.0318 71.3872 37.665
    endloop
  endfacet
  facet normal 0.520841 0.215739 0.825942
    outer loop
      vertex 36.312 70.7107 37.665
      vertex 26.0318 57.245 47.665
      vertex 26.312 56.5685 47.665
    endloop
  endfacet
  facet normal 0 1 -0
    outer loop
      vertex 35.3553 73.0204 34.3986
      vertex 1.2132 73.0204 2.16991
      vertex 35.3553 73.0204 36.312
    endloop
  endfacet
  facet normal 0 1 0
    outer loop
      vertex -1.2132 73.0204 -2.16991
      vertex 1.2132 73.0204 2.16991
      vertex 35.3553 73.0204 34.3986
    endloop
  endfacet
  facet normal 0 1 -0
    outer loop
      vertex -1.2132 73.0204 -2.16991
      vertex -35.3553 73.0204 -34.3986
      vertex 1.2132 73.0204 2.16991
    endloop
  endfacet
  facet normal -0 1 0
    outer loop
      vertex -35.3553 73.0204 -34.3986
      vertex -1.2132 73.0204 -2.16991
      vertex -35.3553 73.0204 -36.312
    endloop
  endfacet
  facet normal 0.357408 0.862855 -0.357408
    outer loop
      vertex 2.84641 72.3439 0.256495
      vertex 35.3553 73.0204 34.3986
      vertex 36.9885 72.3439 34.3986
    endloop
  endfacet
  facet normal 0.357408 0.862855 -0.357408
    outer loop
      vertex 35.3553 73.0204 34.3986
      vertex 2.84641 72.3439 0.256495
      vertex -1.2132 73.0204 -2.16991
    endloop
  endfacet
  facet normal -0.281087 0.678599 0.678597
    outer loop
      vertex 35.3553 73.0204 36.312
      vertex 33.7221 72.3439 36.312
      vertex 35.3553 71.6674 37.665
    endloop
  endfacet
  facet normal 0.281087 0.678599 0.678597
    outer loop
      vertex 35.3553 73.0204 36.312
      vertex 35.3553 71.6674 37.665
      vertex 36.9885 72.3439 36.312
    endloop
  endfacet
  facet normal 0 0 1
    outer loop
      vertex 26.0318 57.245 47.665
      vertex 26.0318 55.892 47.665
      vertex 26.312 56.5685 47.665
    endloop
  endfacet
  facet normal 0 0 1
    outer loop
      vertex 25.3553 57.5252 47.665
      vertex 26.0318 55.892 47.665
      vertex 26.0318 57.245 47.665
    endloop
  endfacet
  facet normal 0 0 1
    outer loop
      vertex 25.3553 57.5252 47.665
      vertex 25.3553 55.6118 47.665
      vertex 26.0318 55.892 47.665
    endloop
  endfacet
  facet normal -0 0 1
    outer loop
      vertex 24.6788 57.245 47.665
      vertex 25.3553 55.6118 47.665
      vertex 25.3553 57.5252 47.665
    endloop
  endfacet
  facet normal 0 0 1
    outer loop
      vertex 24.6788 57.245 47.665
      vertex 24.6788 55.892 47.665
      vertex 25.3553 55.6118 47.665
    endloop
  endfacet
  facet normal 0 -0 1
    outer loop
      vertex 24.6788 55.892 47.665
      vertex 24.6788 57.245 47.665
      vertex 24.3986 56.5685 47.665
    endloop
  endfacet
  facet normal -0.281084 0.6786 0.678597
    outer loop
      vertex 25.3553 57.5252 47.665
      vertex 23.7221 58.2017 46.312
      vertex 24.6788 57.245 47.665
    endloop
  endfacet
  facet normal -0.678599 0.281082 0.678599
    outer loop
      vertex -10.2674 56.5685 12.999
      vertex 23.7221 58.2017 46.312
      vertex -10.2832 56.6067 12.9674
    endloop
  endfacet
  facet normal -0.678598 0.281085 0.678598
    outer loop
      vertex 23.7221 58.2017 46.312
      vertex -10.2674 56.5685 12.999
      vertex 24.3986 56.5685 47.665
    endloop
  endfacet
  facet normal -0.678598 0.281085 0.678598
    outer loop
      vertex 23.7221 58.2017 46.312
      vertex -10.42 58.2017 12.1699
      vertex -10.2832 56.6067 12.9674
    endloop
  endfacet
  facet normal -0.281086 -0.678599 0.678598
    outer loop
      vertex 40.7932 30.7932 29.241
      vertex 25.3553 55.6118 47.665
      vertex 23.7221 54.9353 46.312
    endloop
  endfacet
  facet normal -0.281085 -0.678598 0.678598
    outer loop
      vertex 25.3553 55.6118 47.665
      vertex 40.7932 30.7932 29.241
      vertex 42.4264 31.4697 30.594
    endloop
  endfacet
  facet normal -0.281084 -0.6786 0.678597
    outer loop
      vertex 24.6788 55.892 47.665
      vertex 23.7221 54.9353 46.312
      vertex 25.3553 55.6118 47.665
    endloop
  endfacet
  facet normal 0.194943 -0.470636 0.860523
    outer loop
      vertex 26.0318 55.892 47.665
      vertex 42.4264 31.4697 30.594
      vertex 43.1029 31.7499 30.594
    endloop
  endfacet
  facet normal 0.194943 -0.470636 0.860523
    outer loop
      vertex 42.4264 31.4697 30.594
      vertex 26.0318 55.892 47.665
      vertex 25.3553 55.6118 47.665
    endloop
  endfacet
  facet normal 0.194945 0.470635 0.860523
    outer loop
      vertex -71.2132 0.956708 31.0965
      vertex -31.2767 56.1986 -8.16353
      vertex -31.5666 56.5685 -8.3002
    endloop
  endfacet
  facet normal 0.194944 0.470635 0.860523
    outer loop
      vertex -71.2132 0.956708 31.0965
      vertex -31.5666 56.5685 -8.3002
      vertex -31.6095 56.9648 -8.50722
    endloop
  endfacet
  facet normal 0.194945 0.470635 0.860523
    outer loop
      vertex -31.2767 56.1986 -8.16353
      vertex -71.2132 0.956708 31.0965
      vertex -70.5367 0.676495 31.0965
    endloop
  endfacet
  facet normal 0.816497 -0.57735 0
    outer loop
      vertex -48.4252 4.58481e-07 6.67524
      vertex -20.0584 40.1167 -19.7781
      vertex -48.4252 4.58481e-07 8.58865
    endloop
  endfacet
  facet normal 0.816497 -0.57735 0
    outer loop
      vertex -20.0584 40.1167 -19.7781
      vertex -48.4252 4.58481e-07 6.67524
      vertex -20.0584 40.1167 -21.0151
    endloop
  endfacet
  facet normal 0.816495 -0.577352 -3.76283e-06
    outer loop
      vertex -20.0584 40.1167 -21.0151
      vertex -48.4252 4.58481e-07 6.67524
      vertex -19.58 40.7932 -22.1699
    endloop
  endfacet
  facet normal -0.520841 -0.215739 -0.825942
    outer loop
      vertex -43.1029 31.7499 -30.594
      vertex -66.312 0 -7.66504
      vertex -43.3831 32.4264 -30.594
    endloop
  endfacet
  facet normal -0.678598 0.281086 0.678598
    outer loop
      vertex -87.665 0 15.6014
      vertex -72.8464 1.6332 29.7435
      vertex -86.9885 1.6332 15.6014
    endloop
  endfacet
  facet normal -0.678598 0.281086 0.678598
    outer loop
      vertex -72.8464 1.6332 29.7435
      vertex -87.665 0 15.6014
      vertex -72.1699 0 31.0965
    endloop
  endfacet
  facet normal 0.5 -0.707107 -0.5
    outer loop
      vertex -49.1374 4.52821e-07 5.96295
      vertex -62.5673 4.52821e-07 -7.4669
      vertex -40.7932 30.7932 -29.241
    endloop
  endfacet
  facet normal -0.816497 0.57735 0
    outer loop
      vertex -86.9885 1.6332 13.688
      vertex -54.0596 48.2017 -17.3276
      vertex -54.0596 48.2017 -19.241
    endloop
  endfacet
  facet normal -0.816497 0.57735 0
    outer loop
      vertex -54.0596 48.2017 -17.3276
      vertex -86.9885 1.6332 13.688
      vertex -86.9885 1.6332 15.6014
    endloop
  endfacet
  facet normal -0.5 0.707107 0.5
    outer loop
      vertex -54.0596 48.2017 -17.3276
      vertex -86.9885 1.6332 15.6014
      vertex -72.8464 1.6332 29.7435
    endloop
  endfacet
  facet normal -0.281086 0.678597 0.678599
    outer loop
      vertex -71.2132 0.956708 31.0965
      vertex -72.8464 1.6332 29.7435
      vertex -71.8897 0.676495 31.0965
    endloop
  endfacet
  facet normal 0.5 -0.707107 -0.5
    outer loop
      vertex -49.1374 4.52821e-07 5.96295
      vertex -19.58 40.7932 -22.1699
      vertex -48.4252 4.58481e-07 6.67524
    endloop
  endfacet
  facet normal 0.5 -0.707107 -0.5
    outer loop
      vertex -19.58 40.7932 -22.1699
      vertex -49.1374 4.52821e-07 5.96295
      vertex -40.7932 30.7932 -29.241
    endloop
  endfacet
  facet normal -0.5 0.707107 0.5
    outer loop
      vertex -54.0596 48.2017 -17.3276
      vertex -72.8464 1.6332 29.7435
      vertex -32.8464 58.2017 -10.2565
    endloop
  endfacet
  facet normal -0.923879 0.382685 0
    outer loop
      vertex -87.665 0 13.688
      vertex -86.9885 1.6332 15.6014
      vertex -86.9885 1.6332 13.688
    endloop
  endfacet
  facet normal -0.923879 0.382685 0
    outer loop
      vertex -86.9885 1.6332 15.6014
      vertex -87.665 0 13.688
      vertex -87.665 0 15.6014
    endloop
  endfacet
  facet normal 0.862856 -0.357406 0.357408
    outer loop
      vertex -20.2565 40.1167 -19.2998
      vertex -48.9035 0 9.7435
      vertex -20.0663 40.1167 -19.759
    endloop
  endfacet
  facet normal 0.862856 -0.357405 0.357409
    outer loop
      vertex -48.9035 0 9.7435
      vertex -20.2565 40.1167 -19.2998
      vertex -20.36 40.3666 -18.8
    endloop
  endfacet
  facet normal 0.862857 -0.357414 0.357397
    outer loop
      vertex -20.0663 40.1167 -19.759
      vertex -48.4252 4.58481e-07 8.58865
      vertex -20.0584 40.1167 -19.7781
    endloop
  endfacet
  facet normal 0.862856 -0.357408 0.357405
    outer loop
      vertex -48.4252 4.58481e-07 8.58865
      vertex -20.0663 40.1167 -19.759
      vertex -48.9035 0 9.7435
    endloop
  endfacet
  facet normal -0.194943 -0.470636 -0.860523
    outer loop
      vertex -64.6788 4.62769e-07 -8.34153
      vertex -43.1029 31.7499 -30.594
      vertex -42.4264 31.4697 -30.594
    endloop
  endfacet
  facet normal -0.194944 -0.470635 -0.860523
    outer loop
      vertex -43.1029 31.7499 -30.594
      vertex -64.6788 4.62769e-07 -8.34153
      vertex -65.5535 4.66889e-07 -8.14339
    endloop
  endfacet
  facet normal 0.281085 -0.678598 -0.678598
    outer loop
      vertex -62.5673 4.52821e-07 -7.4669
      vertex -42.4264 31.4697 -30.594
      vertex -40.7932 30.7932 -29.241
    endloop
  endfacet
  facet normal 0.281084 -0.678598 -0.678599
    outer loop
      vertex -42.4264 31.4697 -30.594
      vertex -62.5673 4.52821e-07 -7.4669
      vertex -64.6788 4.62769e-07 -8.34153
    endloop
  endfacet
  facet normal -0.52084 -0.21574 -0.825943
    outer loop
      vertex -65.5535 4.66889e-07 -8.14339
      vertex -66.312 0 -7.66504
      vertex -43.1029 31.7499 -30.594
    endloop
  endfacet
  facet normal -0.707107 5.93434e-08 -0.707107
    outer loop
      vertex -66.312 0 -7.66504
      vertex -86.312 0 12.335
      vertex -43.3831 32.4264 -30.594
    endloop
  endfacet
  facet normal -0.923879 -0.382685 0
    outer loop
      vertex -86.9885 -1.6332 13.688
      vertex -87.665 0 15.6014
      vertex -87.665 0 13.688
    endloop
  endfacet
  facet normal -0.923879 -0.382685 0
    outer loop
      vertex -87.665 0 15.6014
      vertex -86.9885 -1.6332 13.688
      vertex -86.9885 -1.6332 15.6014
    endloop
  endfacet
  facet normal 0.707107 3.25098e-08 0.707107
    outer loop
      vertex -48.9035 0 9.7435
      vertex -21.3648 41.486 -17.7952
      vertex -70.2565 0 31.0965
    endloop
  endfacet
  facet normal 0.707107 1.67683e-08 0.707107
    outer loop
      vertex -21.3648 41.486 -17.7952
      vertex -48.9035 0 9.7435
      vertex -20.875 40.7932 -18.285
    endloop
  endfacet
  facet normal 0.707107 2.10692e-08 0.707107
    outer loop
      vertex -20.875 40.7932 -18.285
      vertex -48.9035 0 9.7435
      vertex -20.36 40.3666 -18.8
    endloop
  endfacet
  facet normal -0.281085 -0.678598 0.678599
    outer loop
      vertex -71.2132 -0.956707 31.0965
      vertex -72.8464 -1.6332 29.7435
      vertex -71.2132 -2.3097 29.7435
    endloop
  endfacet
  facet normal -0.281084 0.678598 0.678598
    outer loop
      vertex -31.6095 56.9648 -8.50722
      vertex -72.8464 1.6332 29.7435
      vertex -71.2132 0.956708 31.0965
    endloop
  endfacet
  facet normal -0.281085 0.678599 0.678598
    outer loop
      vertex -72.8464 1.6332 29.7435
      vertex -31.6095 56.9648 -8.50722
      vertex -32.8464 58.2017 -10.2565
    endloop
  endfacet
  facet normal 0 0 1
    outer loop
      vertex -70.5367 0.676495 31.0965
      vertex -70.5367 -0.676494 31.0965
      vertex -70.2565 0 31.0965
    endloop
  endfacet
  facet normal 0 0 1
    outer loop
      vertex -71.2132 0.956708 31.0965
      vertex -70.5367 -0.676494 31.0965
      vertex -70.5367 0.676495 31.0965
    endloop
  endfacet
  facet normal 0 0 1
    outer loop
      vertex -71.2132 0.956708 31.0965
      vertex -71.2132 -0.956707 31.0965
      vertex -70.5367 -0.676494 31.0965
    endloop
  endfacet
  facet normal -0 0 1
    outer loop
      vertex -71.8897 0.676495 31.0965
      vertex -71.2132 -0.956707 31.0965
      vertex -71.2132 0.956708 31.0965
    endloop
  endfacet
  facet normal 0 0 1
    outer loop
      vertex -71.8897 0.676495 31.0965
      vertex -71.8897 -0.676494 31.0965
      vertex -71.2132 -0.956707 31.0965
    endloop
  endfacet
  facet normal 0 -0 1
    outer loop
      vertex -71.8897 -0.676494 31.0965
      vertex -71.8897 0.676495 31.0965
      vertex -72.1699 0 31.0965
    endloop
  endfacet
  facet normal -0.678594 0.28109 0.678601
    outer loop
      vertex -71.8897 0.676495 31.0965
      vertex -72.8464 1.6332 29.7435
      vertex -72.1699 0 31.0965
    endloop
  endfacet
  facet normal 0.707107 -5.37033e-08 0.707107
    outer loop
      vertex -30.4103 54.2782 -8.74972
      vertex -70.2565 0 31.0965
      vertex -21.3648 41.486 -17.7952
    endloop
  endfacet
  facet normal 0.707106 5.227e-07 0.707107
    outer loop
      vertex -30.875 54.9353 -8.28504
      vertex -70.2565 0 31.0965
      vertex -30.4103 54.2782 -8.74972
    endloop
  endfacet
  facet normal 0.707107 -8.88979e-07 0.707106
    outer loop
      vertex -70.2565 0 31.0965
      vertex -30.875 54.9353 -8.28504
      vertex -30.9965 55.5221 -8.16353
    endloop
  endfacet
  facet normal 0.52084 0.215741 0.825943
    outer loop
      vertex -70.5367 0.676495 31.0965
      vertex -30.9965 55.5221 -8.16353
      vertex -31.2767 56.1986 -8.16353
    endloop
  endfacet
  facet normal 0.520837 0.215743 0.825944
    outer loop
      vertex -30.9965 55.5221 -8.16353
      vertex -70.5367 0.676495 31.0965
      vertex -70.2565 0 31.0965
    endloop
  endfacet
  facet normal -0.862856 0.357409 -0.357404
    outer loop
      vertex -54.7361 46.5685 -19.241
      vertex -86.9885 1.6332 13.688
      vertex -54.0596 48.2017 -19.241
    endloop
  endfacet
  facet normal -0.862856 0.357409 -0.357404
    outer loop
      vertex -86.9885 1.6332 13.688
      vertex -54.7361 46.5685 -19.241
      vertex -87.665 0 13.688
    endloop
  endfacet
  facet normal -0.678598 -0.281086 0.678598
    outer loop
      vertex -72.1699 0 31.0965
      vertex -87.665 0 15.6014
      vertex -72.8464 -1.6332 29.7435
    endloop
  endfacet
  facet normal -0.678598 -0.281086 0.678598
    outer loop
      vertex -72.8464 -1.6332 29.7435
      vertex -87.665 0 15.6014
      vertex -86.9885 -1.6332 15.6014
    endloop
  endfacet
  facet normal -0.707106 -6.32459e-07 -0.707107
    outer loop
      vertex -86.312 0 12.335
      vertex -54.7361 46.5685 -19.241
      vertex -53.3831 46.5685 -20.594
    endloop
  endfacet
  facet normal -0.707107 3.81394e-07 -0.707107
    outer loop
      vertex -54.7361 46.5685 -19.241
      vertex -86.312 0 12.335
      vertex -87.665 0 13.688
    endloop
  endfacet
  facet normal -0.707107 3.6202e-08 -0.707107
    outer loop
      vertex -43.3831 32.4264 -30.594
      vertex -86.312 0 12.335
      vertex -53.3831 46.5685 -20.594
    endloop
  endfacet
  facet normal -0.678594 -0.28109 0.678601
    outer loop
      vertex -72.1699 0 31.0965
      vertex -72.8464 -1.6332 29.7435
      vertex -71.8897 -0.676494 31.0965
    endloop
  endfacet
  facet normal -0.281086 -0.678597 0.6786
    outer loop
      vertex -71.8897 -0.676494 31.0965
      vertex -72.8464 -1.6332 29.7435
      vertex -71.2132 -0.956707 31.0965
    endloop
  endfacet
  facet normal 0.678598 -0.281085 -0.678598
    outer loop
      vertex 10.42 54.9353 -12.1699
      vertex -23.7221 54.9353 -46.312
      vertex 10.2832 56.5304 -12.9674
    endloop
  endfacet
  facet normal 0.5 -0.707107 -0.5
    outer loop
      vertex -19.58 40.7932 -22.1699
      vertex -23.7221 54.9353 -46.312
      vertex 10.42 54.9353 -12.1699
    endloop
  endfacet
  facet normal 0.678599 0.281082 -0.678599
    outer loop
      vertex 10.2674 56.5685 -12.999
      vertex -23.7221 58.2017 -46.312
      vertex 10.2832 56.6067 -12.9674
    endloop
  endfacet
  facet normal 0.678598 0.281085 -0.678598
    outer loop
      vertex -23.7221 58.2017 -46.312
      vertex 10.2674 56.5685 -12.999
      vertex -24.3986 56.5685 -47.665
    endloop
  endfacet
  facet normal 0.5 0.707107 -0.5
    outer loop
      vertex 10.42 58.2017 -12.1699
      vertex -33.7221 72.3439 -36.312
      vertex 0.419999 72.3439 -2.16991
    endloop
  endfacet
  facet normal 0.5 0.707107 -0.5
    outer loop
      vertex -33.7221 72.3439 -36.312
      vertex 10.42 58.2017 -12.1699
      vertex -23.7221 58.2017 -46.312
    endloop
  endfacet
  facet normal 0.357408 0.862855 -0.357408
    outer loop
      vertex -33.7221 72.3439 -36.312
      vertex -35.3553 73.0204 -36.312
      vertex -1.2132 73.0204 -2.16991
    endloop
  endfacet
  facet normal 0.281084 -0.6786 -0.678597
    outer loop
      vertex -23.7221 54.9353 -46.312
      vertex -25.3553 55.6118 -47.665
      vertex -24.6788 55.892 -47.665
    endloop
  endfacet
  facet normal 0.5 -0.707107 -0.5
    outer loop
      vertex -19.58 40.7932 -22.1699
      vertex -40.7932 30.7932 -29.241
      vertex -23.7221 54.9353 -46.312
    endloop
  endfacet
  facet normal 0.678598 0.281085 -0.678598
    outer loop
      vertex 10.2832 56.6067 -12.9674
      vertex -23.7221 58.2017 -46.312
      vertex 10.42 58.2017 -12.1699
    endloop
  endfacet
  facet normal -0.678601 0.281083 -0.678596
    outer loop
      vertex -36.312 70.7107 -37.665
      vertex -36.9885 72.3439 -36.312
      vertex -36.0318 71.3872 -37.665
    endloop
  endfacet
  facet normal -0.520841 0.215739 -0.825942
    outer loop
      vertex -36.312 70.7107 -37.665
      vertex -26.0318 57.245 -47.665
      vertex -26.312 56.5685 -47.665
    endloop
  endfacet
  facet normal -0.520842 0.215738 -0.825942
    outer loop
      vertex -26.0318 57.245 -47.665
      vertex -36.312 70.7107 -37.665
      vertex -36.0318 71.3872 -37.665
    endloop
  endfacet
  facet normal 0.357408 0.862855 -0.357408
    outer loop
      vertex 0.419999 72.3439 -2.16991
      vertex -33.7221 72.3439 -36.312
      vertex -1.2132 73.0204 -2.16991
    endloop
  endfacet
  facet normal 0 0 -1
    outer loop
      vertex -24.6788 55.892 -47.665
      vertex -24.6788 57.245 -47.665
      vertex -24.3986 56.5685 -47.665
    endloop
  endfacet
  facet normal 0 0 -1
    outer loop
      vertex -25.3553 55.6118 -47.665
      vertex -24.6788 57.245 -47.665
      vertex -24.6788 55.892 -47.665
    endloop
  endfacet
  facet normal 0 0 -1
    outer loop
      vertex -25.3553 55.6118 -47.665
      vertex -25.3553 57.5252 -47.665
      vertex -24.6788 57.245 -47.665
    endloop
  endfacet
  facet normal 0 0 -1
    outer loop
      vertex -26.0318 55.892 -47.665
      vertex -25.3553 57.5252 -47.665
      vertex -25.3553 55.6118 -47.665
    endloop
  endfacet
  facet normal 0 0 -1
    outer loop
      vertex -26.0318 55.892 -47.665
      vertex -26.0318 57.245 -47.665
      vertex -25.3553 57.5252 -47.665
    endloop
  endfacet
  facet normal 0 -0 -1
    outer loop
      vertex -26.0318 57.245 -47.665
      vertex -26.0318 55.892 -47.665
      vertex -26.312 56.5685 -47.665
    endloop
  endfacet
  facet normal -0.707107 -2.79325e-08 -0.707107
    outer loop
      vertex -26.312 56.5685 -47.665
      vertex -43.3831 32.4264 -30.594
      vertex -53.3831 46.5685 -20.594
    endloop
  endfacet
  facet normal -0.707107 0 -0.707107
    outer loop
      vertex -26.312 56.5685 -47.665
      vertex -37.665 70.7107 -36.312
      vertex -36.312 70.7107 -37.665
    endloop
  endfacet
  facet normal -0.707107 -3.08473e-08 -0.707107
    outer loop
      vertex -53.3831 46.5685 -20.594
      vertex -37.665 70.7107 -36.312
      vertex -26.312 56.5685 -47.665
    endloop
  endfacet
  facet normal -0.707106 -7.04863e-07 -0.707107
    outer loop
      vertex -37.665 70.7107 -36.312
      vertex -53.3831 46.5685 -20.594
      vertex -54.7361 46.5685 -19.241
    endloop
  endfacet
  facet normal 0.281085 -0.678598 -0.678598
    outer loop
      vertex -25.3553 55.6118 -47.665
      vertex -40.7932 30.7932 -29.241
      vertex -42.4264 31.4697 -30.594
    endloop
  endfacet
  facet normal 0.281086 -0.678599 -0.678598
    outer loop
      vertex -40.7932 30.7932 -29.241
      vertex -25.3553 55.6118 -47.665
      vertex -23.7221 54.9353 -46.312
    endloop
  endfacet
  facet normal -0.194943 -0.470636 -0.860523
    outer loop
      vertex -42.4264 31.4697 -30.594
      vertex -26.0318 55.892 -47.665
      vertex -25.3553 55.6118 -47.665
    endloop
  endfacet
  facet normal -0.194943 -0.470636 -0.860523
    outer loop
      vertex -26.0318 55.892 -47.665
      vertex -42.4264 31.4697 -30.594
      vertex -43.1029 31.7499 -30.594
    endloop
  endfacet
  facet normal 0.678599 -0.281082 -0.678599
    outer loop
      vertex -23.7221 54.9353 -46.312
      vertex 10.2674 56.5685 -12.999
      vertex 10.2832 56.5304 -12.9674
    endloop
  endfacet
  facet normal 0.678598 -0.281085 -0.678598
    outer loop
      vertex 10.2674 56.5685 -12.999
      vertex -23.7221 54.9353 -46.312
      vertex -24.3986 56.5685 -47.665
    endloop
  endfacet
  facet normal 0.678599 -0.281084 -0.678597
    outer loop
      vertex -23.7221 54.9353 -46.312
      vertex -24.6788 55.892 -47.665
      vertex -24.3986 56.5685 -47.665
    endloop
  endfacet
  facet normal 0.281085 0.678599 -0.678598
    outer loop
      vertex -25.3553 57.5252 -47.665
      vertex -33.7221 72.3439 -36.312
      vertex -23.7221 58.2017 -46.312
    endloop
  endfacet
  facet normal 0.281087 0.678599 -0.678597
    outer loop
      vertex -33.7221 72.3439 -36.312
      vertex -25.3553 57.5252 -47.665
      vertex -35.3553 71.6674 -37.665
    endloop
  endfacet
  facet normal -0.281085 0.678601 -0.678596
    outer loop
      vertex -36.0318 71.3872 -37.665
      vertex -36.9885 72.3439 -36.312
      vertex -35.3553 71.6674 -37.665
    endloop
  endfacet
  facet normal -0.5 0.707107 0.5
    outer loop
      vertex -36.9885 72.3439 -34.3986
      vertex -54.0596 48.2017 -17.3276
      vertex -32.8464 58.2017 -10.2565
    endloop
  endfacet
  facet normal 0.281087 0.678599 -0.678597
    outer loop
      vertex -33.7221 72.3439 -36.312
      vertex -35.3553 71.6674 -37.665
      vertex -35.3553 73.0204 -36.312
    endloop
  endfacet
  facet normal -0.281087 0.678599 -0.678597
    outer loop
      vertex -35.3553 71.6674 -37.665
      vertex -36.9885 72.3439 -36.312
      vertex -35.3553 73.0204 -36.312
    endloop
  endfacet
  facet normal -0.520842 -0.215739 -0.825942
    outer loop
      vertex -43.3831 32.4264 -30.594
      vertex -26.0318 55.892 -47.665
      vertex -43.1029 31.7499 -30.594
    endloop
  endfacet
  facet normal -0.520842 -0.215739 -0.825942
    outer loop
      vertex -26.0318 55.892 -47.665
      vertex -43.3831 32.4264 -30.594
      vertex -26.312 56.5685 -47.665
    endloop
  endfacet
  facet normal 0.281084 0.6786 -0.678597
    outer loop
      vertex -24.6788 57.245 -47.665
      vertex -25.3553 57.5252 -47.665
      vertex -23.7221 58.2017 -46.312
    endloop
  endfacet
  facet normal -0.678598 0.281086 -0.678598
    outer loop
      vertex -36.312 70.7107 -37.665
      vertex -37.665 70.7107 -36.312
      vertex -36.9885 72.3439 -36.312
    endloop
  endfacet
  facet normal -0.357408 0.862855 0.357408
    outer loop
      vertex -35.3553 73.0204 -34.3986
      vertex -2.84641 72.3439 -0.256495
      vertex 1.2132 73.0204 2.16991
    endloop
  endfacet
  facet normal -0.357408 0.862855 0.357408
    outer loop
      vertex -2.84641 72.3439 -0.256495
      vertex -35.3553 73.0204 -34.3986
      vertex -36.9885 72.3439 -34.3986
    endloop
  endfacet
  facet normal -0.382685 0.923879 0
    outer loop
      vertex -35.3553 73.0204 -36.312
      vertex -36.9885 72.3439 -34.3986
      vertex -35.3553 73.0204 -34.3986
    endloop
  endfacet
  facet normal -0.382685 0.923879 0
    outer loop
      vertex -36.9885 72.3439 -34.3986
      vertex -35.3553 73.0204 -36.312
      vertex -36.9885 72.3439 -36.312
    endloop
  endfacet
  facet normal -0.194943 0.470636 -0.860523
    outer loop
      vertex -26.0318 57.245 -47.665
      vertex -35.3553 71.6674 -37.665
      vertex -25.3553 57.5252 -47.665
    endloop
  endfacet
  facet normal -0.194943 0.470636 -0.860523
    outer loop
      vertex -35.3553 71.6674 -37.665
      vertex -26.0318 57.245 -47.665
      vertex -36.0318 71.3872 -37.665
    endloop
  endfacet
  facet normal 0.678599 0.281084 -0.678597
    outer loop
      vertex -24.3986 56.5685 -47.665
      vertex -24.6788 57.245 -47.665
      vertex -23.7221 58.2017 -46.312
    endloop
  endfacet
  facet normal -0.816497 0.57735 0
    outer loop
      vertex -54.0596 48.2017 -19.241
      vertex -36.9885 72.3439 -34.3986
      vertex -36.9885 72.3439 -36.312
    endloop
  endfacet
  facet normal -0.816497 0.57735 0
    outer loop
      vertex -36.9885 72.3439 -34.3986
      vertex -54.0596 48.2017 -19.241
      vertex -54.0596 48.2017 -17.3276
    endloop
  endfacet
  facet normal -0.862856 0.357409 -0.357404
    outer loop
      vertex -37.665 70.7107 -36.312
      vertex -54.0596 48.2017 -19.241
      vertex -36.9885 72.3439 -36.312
    endloop
  endfacet
  facet normal -0.862856 0.357409 -0.357404
    outer loop
      vertex -54.0596 48.2017 -19.241
      vertex -37.665 70.7107 -36.312
      vertex -54.7361 46.5685 -19.241
    endloop
  endfacet
  facet normal -0.5 0.707107 0.5
    outer loop
      vertex -2.84641 72.3439 -0.256495
      vertex -36.9885 72.3439 -34.3986
      vertex -32.8464 58.2017 -10.2565
    endloop
  endfacet
  facet normal 0.194944 0.470635 0.860523
    outer loop
      vertex 64.6788 -4.62769e-07 8.34153
      vertex 43.1029 -31.7499 30.594
      vertex 65.5535 -4.66889e-07 8.14339
    endloop
  endfacet
  facet normal 0.194943 0.470636 0.860523
    outer loop
      vertex 43.1029 -31.7499 30.594
      vertex 64.6788 -4.62769e-07 8.34153
      vertex 42.4264 -31.4697 30.594
    endloop
  endfacet
  facet normal 0.707107 -3.81394e-07 0.707107
    outer loop
      vertex 86.312 0 -12.335
      vertex 54.7361 -46.5685 19.241
      vertex 87.665 0 -13.688
    endloop
  endfacet
  facet normal 0.707106 6.32459e-07 0.707107
    outer loop
      vertex 54.7361 -46.5685 19.241
      vertex 86.312 0 -12.335
      vertex 53.3831 -46.5685 20.594
    endloop
  endfacet
  facet normal 0.678598 0.281086 -0.678598
    outer loop
      vertex 87.665 0 -15.6014
      vertex 72.1699 0 -31.0965
      vertex 72.8464 1.6332 -29.7435
    endloop
  endfacet
  facet normal 0.5 -0.707107 -0.5
    outer loop
      vertex 86.9885 -1.6332 -15.6014
      vertex 54.0596 -48.2017 17.3276
      vertex 72.8464 -1.6332 -29.7435
    endloop
  endfacet
  facet normal 0 0 -1
    outer loop
      vertex 71.8897 -0.676495 -31.0965
      vertex 71.8897 0.676494 -31.0965
      vertex 72.1699 0 -31.0965
    endloop
  endfacet
  facet normal 0 0 -1
    outer loop
      vertex 71.2132 -0.956708 -31.0965
      vertex 71.8897 0.676494 -31.0965
      vertex 71.8897 -0.676495 -31.0965
    endloop
  endfacet
  facet normal 0 0 -1
    outer loop
      vertex 71.2132 -0.956708 -31.0965
      vertex 71.2132 0.956707 -31.0965
      vertex 71.8897 0.676494 -31.0965
    endloop
  endfacet
  facet normal 0 0 -1
    outer loop
      vertex 70.5367 -0.676495 -31.0965
      vertex 71.2132 0.956707 -31.0965
      vertex 71.2132 -0.956708 -31.0965
    endloop
  endfacet
  facet normal 0 0 -1
    outer loop
      vertex 70.5367 -0.676495 -31.0965
      vertex 70.5367 0.676494 -31.0965
      vertex 71.2132 0.956707 -31.0965
    endloop
  endfacet
  facet normal 0 -0 -1
    outer loop
      vertex 70.5367 0.676494 -31.0965
      vertex 70.5367 -0.676495 -31.0965
      vertex 70.2565 0 -31.0965
    endloop
  endfacet
  facet normal 0.520841 0.215739 0.825942
    outer loop
      vertex 66.312 0 7.66504
      vertex 43.1029 -31.7499 30.594
      vertex 43.3831 -32.4264 30.594
    endloop
  endfacet
  facet normal 0.862856 -0.357409 0.357404
    outer loop
      vertex 54.7361 -46.5685 19.241
      vertex 86.9885 -1.6332 -13.688
      vertex 87.665 0 -13.688
    endloop
  endfacet
  facet normal 0.862856 -0.357409 0.357404
    outer loop
      vertex 86.9885 -1.6332 -13.688
      vertex 54.7361 -46.5685 19.241
      vertex 54.0596 -48.2017 19.241
    endloop
  endfacet
  facet normal 0.816497 -0.57735 0
    outer loop
      vertex 54.0596 -48.2017 17.3276
      vertex 86.9885 -1.6332 -13.688
      vertex 54.0596 -48.2017 19.241
    endloop
  endfacet
  facet normal 0.816497 -0.57735 0
    outer loop
      vertex 86.9885 -1.6332 -13.688
      vertex 54.0596 -48.2017 17.3276
      vertex 86.9885 -1.6332 -15.6014
    endloop
  endfacet
  facet normal 0.281084 -0.678598 -0.678598
    outer loop
      vertex 32.8464 -58.2017 10.2565
      vertex 71.2132 -0.956708 -31.0965
      vertex 72.8464 -1.6332 -29.7435
    endloop
  endfacet
  facet normal 0.281085 -0.678599 -0.678598
    outer loop
      vertex 71.2132 -0.956708 -31.0965
      vertex 32.8464 -58.2017 10.2565
      vertex 31.6095 -56.9648 8.50722
    endloop
  endfacet
  facet normal 0.52084 0.21574 0.825943
    outer loop
      vertex 65.5535 -4.66889e-07 8.14339
      vertex 43.1029 -31.7499 30.594
      vertex 66.312 0 7.66504
    endloop
  endfacet
  facet normal -0.281084 0.678598 0.678599
    outer loop
      vertex 62.5673 -4.52821e-07 7.4669
      vertex 42.4264 -31.4697 30.594
      vertex 64.6788 -4.62769e-07 8.34153
    endloop
  endfacet
  facet normal -0.281085 0.678598 0.678598
    outer loop
      vertex 42.4264 -31.4697 30.594
      vertex 62.5673 -4.52821e-07 7.4669
      vertex 40.7932 -30.7932 29.241
    endloop
  endfacet
  facet normal -0.816497 0.57735 0
    outer loop
      vertex 20.0584 -40.1167 19.7781
      vertex 48.4252 -4.58481e-07 -6.67524
      vertex 48.4252 -4.58481e-07 -8.58865
    endloop
  endfacet
  facet normal -0.816497 0.57735 0
    outer loop
      vertex 20.0584 -40.1167 21.0151
      vertex 48.4252 -4.58481e-07 -6.67524
      vertex 20.0584 -40.1167 19.7781
    endloop
  endfacet
  facet normal -0.816495 0.577352 3.76283e-06
    outer loop
      vertex 48.4252 -4.58481e-07 -6.67524
      vertex 20.0584 -40.1167 21.0151
      vertex 19.58 -40.7932 22.1699
    endloop
  endfacet
  facet normal 0.5 -0.707107 -0.5
    outer loop
      vertex 54.0596 -48.2017 17.3276
      vertex 32.8464 -58.2017 10.2565
      vertex 72.8464 -1.6332 -29.7435
    endloop
  endfacet
  facet normal 0.923879 -0.382685 0
    outer loop
      vertex 86.9885 -1.6332 -13.688
      vertex 87.665 0 -15.6014
      vertex 87.665 0 -13.688
    endloop
  endfacet
  facet normal 0.923879 -0.382685 0
    outer loop
      vertex 87.665 0 -15.6014
      vertex 86.9885 -1.6332 -13.688
      vertex 86.9885 -1.6332 -15.6014
    endloop
  endfacet
  facet normal 0.707107 -5.93434e-08 0.707107
    outer loop
      vertex 66.312 0 7.66504
      vertex 43.3831 -32.4264 30.594
      vertex 86.312 0 -12.335
    endloop
  endfacet
  facet normal 0.707107 -3.6202e-08 0.707107
    outer loop
      vertex 86.312 0 -12.335
      vertex 43.3831 -32.4264 30.594
      vertex 53.3831 -46.5685 20.594
    endloop
  endfacet
  facet normal 0.678598 -0.281086 -0.678598
    outer loop
      vertex 72.8464 -1.6332 -29.7435
      vertex 87.665 0 -15.6014
      vertex 86.9885 -1.6332 -15.6014
    endloop
  endfacet
  facet normal 0.678598 -0.281086 -0.678598
    outer loop
      vertex 87.665 0 -15.6014
      vertex 72.8464 -1.6332 -29.7435
      vertex 72.1699 0 -31.0965
    endloop
  endfacet
  facet normal 0.923879 0.382685 0
    outer loop
      vertex 87.665 0 -13.688
      vertex 86.9885 1.6332 -15.6014
      vertex 86.9885 1.6332 -13.688
    endloop
  endfacet
  facet normal 0.923879 0.382685 0
    outer loop
      vertex 86.9885 1.6332 -15.6014
      vertex 87.665 0 -13.688
      vertex 87.665 0 -15.6014
    endloop
  endfacet
  facet normal 0.678598 0.281086 -0.678598
    outer loop
      vertex 87.665 0 -15.6014
      vertex 72.8464 1.6332 -29.7435
      vertex 86.9885 1.6332 -15.6014
    endloop
  endfacet
  facet normal -0.5 0.707107 0.5
    outer loop
      vertex 49.1374 -4.52821e-07 -5.96295
      vertex 19.58 -40.7932 22.1699
      vertex 40.7932 -30.7932 29.241
    endloop
  endfacet
  facet normal -0.5 0.707107 0.5
    outer loop
      vertex 19.58 -40.7932 22.1699
      vertex 49.1374 -4.52821e-07 -5.96295
      vertex 48.4252 -4.58481e-07 -6.67524
    endloop
  endfacet
  facet normal -0.5 0.707107 0.5
    outer loop
      vertex 49.1374 -4.52821e-07 -5.96295
      vertex 40.7932 -30.7932 29.241
      vertex 62.5673 -4.52821e-07 7.4669
    endloop
  endfacet
  facet normal -0.707107 -3.25098e-08 -0.707107
    outer loop
      vertex 21.3648 -41.486 17.7952
      vertex 48.9035 0 -9.7435
      vertex 70.2565 0 -31.0965
    endloop
  endfacet
  facet normal -0.707107 -2.10692e-08 -0.707107
    outer loop
      vertex 48.9035 0 -9.7435
      vertex 20.875 -40.7932 18.285
      vertex 20.36 -40.3666 18.8
    endloop
  endfacet
  facet normal -0.707107 -1.67683e-08 -0.707107
    outer loop
      vertex 48.9035 0 -9.7435
      vertex 21.3648 -41.486 17.7952
      vertex 20.875 -40.7932 18.285
    endloop
  endfacet
  facet normal -0.52084 -0.215741 -0.825943
    outer loop
      vertex 30.9965 -55.5221 8.16353
      vertex 70.5367 -0.676495 -31.0965
      vertex 31.2767 -56.1986 8.16353
    endloop
  endfacet
  facet normal -0.520837 -0.215743 -0.825944
    outer loop
      vertex 70.5367 -0.676495 -31.0965
      vertex 30.9965 -55.5221 8.16353
      vertex 70.2565 0 -31.0965
    endloop
  endfacet
  facet normal -0.194944 -0.470635 -0.860523
    outer loop
      vertex 31.5666 -56.5685 8.3002
      vertex 71.2132 -0.956708 -31.0965
      vertex 31.6095 -56.9648 8.50722
    endloop
  endfacet
  facet normal -0.194945 -0.470635 -0.860523
    outer loop
      vertex 31.2767 -56.1986 8.16353
      vertex 71.2132 -0.956708 -31.0965
      vertex 31.5666 -56.5685 8.3002
    endloop
  endfacet
  facet normal -0.194945 -0.470635 -0.860523
    outer loop
      vertex 71.2132 -0.956708 -31.0965
      vertex 31.2767 -56.1986 8.16353
      vertex 70.5367 -0.676495 -31.0965
    endloop
  endfacet
  facet normal 0.281085 0.678598 -0.678599
    outer loop
      vertex 72.8464 1.6332 -29.7435
      vertex 71.2132 0.956707 -31.0965
      vertex 71.2132 2.3097 -29.7435
    endloop
  endfacet
  facet normal 0.678594 -0.28109 -0.678601
    outer loop
      vertex 72.8464 -1.6332 -29.7435
      vertex 71.8897 -0.676495 -31.0965
      vertex 72.1699 0 -31.0965
    endloop
  endfacet
  facet normal -0.862856 0.357408 -0.357405
    outer loop
      vertex 20.0663 -40.1167 19.759
      vertex 48.4252 -4.58481e-07 -8.58865
      vertex 48.9035 0 -9.7435
    endloop
  endfacet
  facet normal -0.862857 0.357414 -0.357397
    outer loop
      vertex 48.4252 -4.58481e-07 -8.58865
      vertex 20.0663 -40.1167 19.759
      vertex 20.0584 -40.1167 19.7781
    endloop
  endfacet
  facet normal -0.862856 0.357405 -0.357409
    outer loop
      vertex 48.9035 0 -9.7435
      vertex 20.36 -40.3666 18.8
      vertex 20.2565 -40.1167 19.2998
    endloop
  endfacet
  facet normal -0.862856 0.357406 -0.357408
    outer loop
      vertex 48.9035 0 -9.7435
      vertex 20.2565 -40.1167 19.2998
      vertex 20.0663 -40.1167 19.759
    endloop
  endfacet
  facet normal -0.707107 5.37033e-08 -0.707107
    outer loop
      vertex 70.2565 0 -31.0965
      vertex 30.4103 -54.2782 8.74972
      vertex 21.3648 -41.486 17.7952
    endloop
  endfacet
  facet normal -0.707106 -5.227e-07 -0.707107
    outer loop
      vertex 70.2565 0 -31.0965
      vertex 30.875 -54.9353 8.28504
      vertex 30.4103 -54.2782 8.74972
    endloop
  endfacet
  facet normal -0.707107 8.88979e-07 -0.707106
    outer loop
      vertex 30.875 -54.9353 8.28504
      vertex 70.2565 0 -31.0965
      vertex 30.9965 -55.5221 8.16353
    endloop
  endfacet
  facet normal 0.281086 0.678597 -0.6786
    outer loop
      vertex 71.8897 0.676494 -31.0965
      vertex 71.2132 0.956707 -31.0965
      vertex 72.8464 1.6332 -29.7435
    endloop
  endfacet
  facet normal 0.678594 0.28109 -0.678601
    outer loop
      vertex 72.1699 0 -31.0965
      vertex 71.8897 0.676494 -31.0965
      vertex 72.8464 1.6332 -29.7435
    endloop
  endfacet
  facet normal 0.281086 -0.678597 -0.678599
    outer loop
      vertex 72.8464 -1.6332 -29.7435
      vertex 71.2132 -0.956708 -31.0965
      vertex 71.8897 -0.676495 -31.0965
    endloop
  endfacet
  facet normal 0.678598 0.281086 -0.678598
    outer loop
      vertex 31.6216 56.977 8.52438
      vertex 10.42 58.2017 -12.1699
      vertex 32.8464 58.2017 10.2565
    endloop
  endfacet
  facet normal 0.678594 0.28111 -0.678592
    outer loop
      vertex 31.6095 56.9648 8.50722
      vertex 10.42 58.2017 -12.1699
      vertex 31.6216 56.977 8.52438
    endloop
  endfacet
  facet normal 0.678598 0.281085 -0.678598
    outer loop
      vertex 31.5666 56.5685 8.3002
      vertex 10.42 58.2017 -12.1699
      vertex 31.6095 56.9648 8.50722
    endloop
  endfacet
  facet normal 0.678598 0.281085 -0.678598
    outer loop
      vertex 10.42 58.2017 -12.1699
      vertex 31.5666 56.5685 8.3002
      vertex 10.2832 56.6067 -12.9674
    endloop
  endfacet
  facet normal 0.678599 0.281082 -0.678599
    outer loop
      vertex 10.2832 56.6067 -12.9674
      vertex 31.5666 56.5685 8.3002
      vertex 10.2674 56.5685 -12.999
    endloop
  endfacet
  facet normal 0.499998 -0.707109 -0.499998
    outer loop
      vertex -19.58 40.7932 -22.1699
      vertex 21.3648 41.486 17.7952
      vertex 20.875 40.7932 18.285
    endloop
  endfacet
  facet normal 0.5 -0.707107 -0.5
    outer loop
      vertex 21.3648 41.486 17.7952
      vertex -19.58 40.7932 -22.1699
      vertex 30.4103 54.2782 8.74972
    endloop
  endfacet
  facet normal 0.357407 -0.862856 -0.357407
    outer loop
      vertex -20.0584 40.1167 -21.0151
      vertex 20.36 40.3666 18.8
      vertex 20.2565 40.1167 19.2998
    endloop
  endfacet
  facet normal 0.357409 -0.862855 -0.357409
    outer loop
      vertex -20.0584 40.1167 -21.0151
      vertex 20.875 40.7932 18.285
      vertex 20.36 40.3666 18.8
    endloop
  endfacet
  facet normal 0.357408 -0.862855 -0.357408
    outer loop
      vertex 20.875 40.7932 18.285
      vertex -20.0584 40.1167 -21.0151
      vertex -19.58 40.7932 -22.1699
    endloop
  endfacet
  facet normal 0.5 0.707107 -0.5
    outer loop
      vertex 10.42 58.2017 -12.1699
      vertex 2.84641 72.3439 0.256495
      vertex 32.8464 58.2017 10.2565
    endloop
  endfacet
  facet normal 0.5 -0.707107 -0.5
    outer loop
      vertex 30.4103 54.2782 8.74972
      vertex 10.42 54.9353 -12.1699
      vertex 30.875 54.9353 8.28504
    endloop
  endfacet
  facet normal 0.5 -0.707107 -0.5
    outer loop
      vertex 10.42 54.9353 -12.1699
      vertex 30.4103 54.2782 8.74972
      vertex -19.58 40.7932 -22.1699
    endloop
  endfacet
  facet normal -0.5 -0.707107 0.5
    outer loop
      vertex -30.4103 54.2782 -8.74972
      vertex -10.42 54.9353 12.1699
      vertex -30.875 54.9353 -8.28504
    endloop
  endfacet
  facet normal -0.5 -0.707107 0.5
    outer loop
      vertex -10.42 54.9353 12.1699
      vertex -30.4103 54.2782 -8.74972
      vertex 19.58 40.7932 22.1699
    endloop
  endfacet
  facet normal -0.5 0.707107 0.5
    outer loop
      vertex -2.84641 72.3439 -0.256495
      vertex -10.42 58.2017 12.1699
      vertex -0.419999 72.3439 2.16991
    endloop
  endfacet
  facet normal 0.5 0.707107 -0.5
    outer loop
      vertex 10.42 58.2017 -12.1699
      vertex 0.419999 72.3439 -2.16991
      vertex 2.84641 72.3439 0.256495
    endloop
  endfacet
  facet normal 0.678598 -0.281085 -0.678598
    outer loop
      vertex 10.2832 56.5304 -12.9674
      vertex 31.2715 56.186 8.16353
      vertex 30.9965 55.5221 8.16353
    endloop
  endfacet
  facet normal 0.678598 -0.281085 -0.678598
    outer loop
      vertex 10.2832 56.5304 -12.9674
      vertex 30.875 54.9353 8.28504
      vertex 10.42 54.9353 -12.1699
    endloop
  endfacet
  facet normal 0.678598 -0.281085 -0.678598
    outer loop
      vertex 30.875 54.9353 8.28504
      vertex 10.2832 56.5304 -12.9674
      vertex 30.9965 55.5221 8.16353
    endloop
  endfacet
  facet normal 0.6786 -0.281078 -0.6786
    outer loop
      vertex 31.2715 56.186 8.16353
      vertex 10.2832 56.5304 -12.9674
      vertex 31.2767 56.1986 8.16353
    endloop
  endfacet
  facet normal 0.678599 -0.281082 -0.678599
    outer loop
      vertex 10.2674 56.5685 -12.999
      vertex 31.2767 56.1986 8.16353
      vertex 10.2832 56.5304 -12.9674
    endloop
  endfacet
  facet normal 0.678598 -0.281086 -0.678598
    outer loop
      vertex 31.2767 56.1986 8.16353
      vertex 10.2674 56.5685 -12.999
      vertex 31.5666 56.5685 8.3002
    endloop
  endfacet
  facet normal -0.357408 0.862855 0.357408
    outer loop
      vertex 1.2132 73.0204 2.16991
      vertex -2.84641 72.3439 -0.256495
      vertex -0.419999 72.3439 2.16991
    endloop
  endfacet
  facet normal -0.5 -0.707107 0.5
    outer loop
      vertex -21.3648 41.486 -17.7952
      vertex 19.58 40.7932 22.1699
      vertex -30.4103 54.2782 -8.74972
    endloop
  endfacet
  facet normal -0.499998 -0.707109 0.499998
    outer loop
      vertex 19.58 40.7932 22.1699
      vertex -21.3648 41.486 -17.7952
      vertex -20.875 40.7932 -18.285
    endloop
  endfacet
  facet normal -0.5 0.707107 0.5
    outer loop
      vertex -2.84641 72.3439 -0.256495
      vertex -32.8464 58.2017 -10.2565
      vertex -10.42 58.2017 12.1699
    endloop
  endfacet
  facet normal 0 -1 0
    outer loop
      vertex -20.2565 40.1167 -19.2998
      vertex 20.0584 40.1167 19.7781
      vertex 20.0584 40.1167 21.0151
    endloop
  endfacet
  facet normal 0 -1 0
    outer loop
      vertex -20.2565 40.1167 -19.2998
      vertex 20.2565 40.1167 19.2998
      vertex 20.0584 40.1167 19.7781
    endloop
  endfacet
  facet normal 0 -1 0
    outer loop
      vertex -20.0663 40.1167 -19.759
      vertex 20.2565 40.1167 19.2998
      vertex -20.2565 40.1167 -19.2998
    endloop
  endfacet
  facet normal 0 -1 0
    outer loop
      vertex -20.0584 40.1167 -19.7781
      vertex 20.2565 40.1167 19.2998
      vertex -20.0663 40.1167 -19.759
    endloop
  endfacet
  facet normal 0 -1 0
    outer loop
      vertex 20.2565 40.1167 19.2998
      vertex -20.0584 40.1167 -19.7781
      vertex -20.0584 40.1167 -21.0151
    endloop
  endfacet
  facet normal -0.678598 0.281086 0.678598
    outer loop
      vertex -31.6095 56.9648 -8.50722
      vertex -10.42 58.2017 12.1699
      vertex -32.8464 58.2017 -10.2565
    endloop
  endfacet
  facet normal -0.678598 0.281085 0.678598
    outer loop
      vertex -31.5666 56.5685 -8.3002
      vertex -10.42 58.2017 12.1699
      vertex -31.6095 56.9648 -8.50722
    endloop
  endfacet
  facet normal -0.678598 0.281085 0.678598
    outer loop
      vertex -10.42 58.2017 12.1699
      vertex -31.5666 56.5685 -8.3002
      vertex -10.2832 56.6067 12.9674
    endloop
  endfacet
  facet normal -0.678599 0.281082 0.678599
    outer loop
      vertex -10.2832 56.6067 12.9674
      vertex -31.5666 56.5685 -8.3002
      vertex -10.2674 56.5685 12.999
    endloop
  endfacet
  facet normal -0.357408 -0.862855 0.357408
    outer loop
      vertex -20.875 40.7932 -18.285
      vertex 20.0584 40.1167 21.0151
      vertex 19.58 40.7932 22.1699
    endloop
  endfacet
  facet normal -0.357409 -0.862855 0.357409
    outer loop
      vertex -20.36 40.3666 -18.8
      vertex 20.0584 40.1167 21.0151
      vertex -20.875 40.7932 -18.285
    endloop
  endfacet
  facet normal -0.357407 -0.862856 0.357407
    outer loop
      vertex 20.0584 40.1167 21.0151
      vertex -20.36 40.3666 -18.8
      vertex -20.2565 40.1167 -19.2998
    endloop
  endfacet
  facet normal 0.357408 0.862855 -0.357408
    outer loop
      vertex 0.419999 72.3439 -2.16991
      vertex -1.2132 73.0204 -2.16991
      vertex 2.84641 72.3439 0.256495
    endloop
  endfacet
  facet normal -0.678598 -0.281085 0.678598
    outer loop
      vertex -10.2832 56.5304 12.9674
      vertex -30.875 54.9353 -8.28504
      vertex -10.42 54.9353 12.1699
    endloop
  endfacet
  facet normal -0.678599 -0.281082 0.678599
    outer loop
      vertex -31.2767 56.1986 -8.16353
      vertex -10.2832 56.5304 12.9674
      vertex -10.2674 56.5685 12.999
    endloop
  endfacet
  facet normal -0.678598 -0.281085 0.678598
    outer loop
      vertex -10.2832 56.5304 12.9674
      vertex -30.9965 55.5221 -8.16353
      vertex -30.875 54.9353 -8.28504
    endloop
  endfacet
  facet normal -0.678598 -0.281085 0.678598
    outer loop
      vertex -10.2832 56.5304 12.9674
      vertex -31.2767 56.1986 -8.16353
      vertex -30.9965 55.5221 -8.16353
    endloop
  endfacet
  facet normal -0.678598 -0.281086 0.678598
    outer loop
      vertex -31.2767 56.1986 -8.16353
      vertex -10.2674 56.5685 12.999
      vertex -31.5666 56.5685 -8.3002
    endloop
  endfacet
  facet normal -0.5 -0.707107 0.5
    outer loop
      vertex 62.5673 -4.52821e-07 7.4669
      vertex 40.7932 30.7932 29.241
      vertex 49.1374 -4.52821e-07 -5.96295
    endloop
  endfacet
  facet normal -0.816497 -0.57735 -0
    outer loop
      vertex 48.4252 -4.58481e-07 -6.67524
      vertex 20.0584 40.1167 19.7781
      vertex 48.4252 -4.58481e-07 -8.58865
    endloop
  endfacet
  facet normal -0.816497 -0.57735 0
    outer loop
      vertex 20.0584 40.1167 19.7781
      vertex 48.4252 -4.58481e-07 -6.67524
      vertex 20.0584 40.1167 21.0151
    endloop
  endfacet
  facet normal -0.816495 -0.577352 3.74986e-06
    outer loop
      vertex 20.0584 40.1167 21.0151
      vertex 48.4252 -4.58481e-07 -6.67524
      vertex 19.58 40.7932 22.1699
    endloop
  endfacet
  facet normal -0.281084 -0.678598 0.678599
    outer loop
      vertex 42.4264 31.4697 30.594
      vertex 62.5673 -4.52821e-07 7.4669
      vertex 64.6788 -4.62769e-07 8.34153
    endloop
  endfacet
  facet normal -0.281085 -0.678598 0.678598
    outer loop
      vertex 62.5673 -4.52821e-07 7.4669
      vertex 42.4264 31.4697 30.594
      vertex 40.7932 30.7932 29.241
    endloop
  endfacet
  facet normal -0.5 -0.707107 0.5
    outer loop
      vertex 19.58 40.7932 22.1699
      vertex 49.1374 -4.52821e-07 -5.96295
      vertex 40.7932 30.7932 29.241
    endloop
  endfacet
  facet normal -0.5 -0.707107 0.5
    outer loop
      vertex 49.1374 -4.52821e-07 -5.96295
      vertex 19.58 40.7932 22.1699
      vertex 48.4252 -4.58481e-07 -6.67524
    endloop
  endfacet
  facet normal 0.5 0.707107 -0.5
    outer loop
      vertex 72.8464 1.6332 -29.7435
      vertex 32.8464 58.2017 10.2565
      vertex 54.0596 48.2017 17.3276
    endloop
  endfacet
  facet normal 0.816497 0.57735 0
    outer loop
      vertex 86.9885 1.6332 -13.688
      vertex 54.0596 48.2017 17.3276
      vertex 54.0596 48.2017 19.241
    endloop
  endfacet
  facet normal 0.816497 0.57735 0
    outer loop
      vertex 54.0596 48.2017 17.3276
      vertex 86.9885 1.6332 -13.688
      vertex 86.9885 1.6332 -15.6014
    endloop
  endfacet
  facet normal 0.194944 -0.470635 0.860523
    outer loop
      vertex 43.1029 31.7499 30.594
      vertex 64.6788 -4.62769e-07 8.34153
      vertex 65.5535 -4.66889e-07 8.14339
    endloop
  endfacet
  facet normal 0.194943 -0.470636 0.860523
    outer loop
      vertex 64.6788 -4.62769e-07 8.34153
      vertex 43.1029 31.7499 30.594
      vertex 42.4264 31.4697 30.594
    endloop
  endfacet
  facet normal -0.707107 3.25098e-08 -0.707107
    outer loop
      vertex 48.9035 0 -9.7435
      vertex 21.3648 41.486 17.7952
      vertex 70.2565 0 -31.0965
    endloop
  endfacet
  facet normal -0.707107 1.67683e-08 -0.707107
    outer loop
      vertex 21.3648 41.486 17.7952
      vertex 48.9035 0 -9.7435
      vertex 20.875 40.7932 18.285
    endloop
  endfacet
  facet normal -0.707107 2.10692e-08 -0.707107
    outer loop
      vertex 20.875 40.7932 18.285
      vertex 48.9035 0 -9.7435
      vertex 20.36 40.3666 18.8
    endloop
  endfacet
  facet normal -0.862856 -0.357408 -0.357405
    outer loop
      vertex 48.4252 -4.58481e-07 -8.58865
      vertex 20.36 40.3666 18.8
      vertex 48.9035 0 -9.7435
    endloop
  endfacet
  facet normal -0.862856 -0.357405 -0.357409
    outer loop
      vertex 20.36 40.3666 18.8
      vertex 48.4252 -4.58481e-07 -8.58865
      vertex 20.2565 40.1167 19.2998
    endloop
  endfacet
  facet normal -0.862856 -0.357406 -0.357408
    outer loop
      vertex 20.2565 40.1167 19.2998
      vertex 48.4252 -4.58481e-07 -8.58865
      vertex 20.0584 40.1167 19.7781
    endloop
  endfacet
  facet normal 0.707107 3.6202e-08 0.707107
    outer loop
      vertex 53.3831 46.5685 20.594
      vertex 50.4542 42.4264 23.5229
      vertex 86.312 0 -12.335
    endloop
  endfacet
  facet normal 0.52084 -0.21574 0.825943
    outer loop
      vertex 43.3831 32.4264 30.594
      vertex 65.5535 -4.66889e-07 8.14339
      vertex 66.312 0 7.66504
    endloop
  endfacet
  facet normal 0.520841 -0.215739 0.825942
    outer loop
      vertex 65.5535 -4.66889e-07 8.14339
      vertex 43.3831 32.4264 30.594
      vertex 43.1029 31.7499 30.594
    endloop
  endfacet
  facet normal 0.281085 0.678598 -0.678598
    outer loop
      vertex 71.2132 2.3097 -29.7435
      vertex 31.6216 56.977 8.52438
      vertex 72.8464 1.6332 -29.7435
    endloop
  endfacet
  facet normal 0.28107 0.678594 -0.678608
    outer loop
      vertex 31.6216 56.977 8.52438
      vertex 71.2132 2.3097 -29.7435
      vertex 31.6095 56.9648 8.50722
    endloop
  endfacet
  facet normal 0.281084 0.678598 -0.678599
    outer loop
      vertex 31.6095 56.9648 8.50722
      vertex 71.2132 2.3097 -29.7435
      vertex 71.2132 0.956707 -31.0965
    endloop
  endfacet
  facet normal 0.281086 0.678599 -0.678598
    outer loop
      vertex 72.8464 1.6332 -29.7435
      vertex 31.6216 56.977 8.52438
      vertex 32.8464 58.2017 10.2565
    endloop
  endfacet
  facet normal -0.520837 0.215743 -0.825944
    outer loop
      vertex 31.2715 56.186 8.16353
      vertex 70.5367 0.676494 -31.0965
      vertex 70.2565 0 -31.0965
    endloop
  endfacet
  facet normal -0.520845 0.215736 -0.825941
    outer loop
      vertex 70.5367 0.676494 -31.0965
      vertex 31.2715 56.186 8.16353
      vertex 31.2767 56.1986 8.16353
    endloop
  endfacet
  facet normal -0.194945 0.470635 -0.860523
    outer loop
      vertex 31.2767 56.1986 8.16353
      vertex 71.2132 0.956707 -31.0965
      vertex 70.5367 0.676494 -31.0965
    endloop
  endfacet
  facet normal -0.194944 0.470635 -0.860523
    outer loop
      vertex 71.2132 0.956707 -31.0965
      vertex 31.5666 56.5685 8.3002
      vertex 31.6095 56.9648 8.50722
    endloop
  endfacet
  facet normal -0.194945 0.470635 -0.860523
    outer loop
      vertex 71.2132 0.956707 -31.0965
      vertex 31.2767 56.1986 8.16353
      vertex 31.5666 56.5685 8.3002
    endloop
  endfacet
  facet normal -0.707107 -5.37033e-08 -0.707107
    outer loop
      vertex 30.4103 54.2782 8.74972
      vertex 70.2565 0 -31.0965
      vertex 21.3648 41.486 17.7952
    endloop
  endfacet
  facet normal -0.707106 5.227e-07 -0.707107
    outer loop
      vertex 30.875 54.9353 8.28504
      vertex 70.2565 0 -31.0965
      vertex 30.4103 54.2782 8.74972
    endloop
  endfacet
  facet normal -0.707107 -8.88979e-07 -0.707106
    outer loop
      vertex 70.2565 0 -31.0965
      vertex 30.875 54.9353 8.28504
      vertex 30.9965 55.5221 8.16353
    endloop
  endfacet
  facet normal 0.707107 3.81394e-07 0.707107
    outer loop
      vertex 54.7361 46.5685 19.241
      vertex 86.312 0 -12.335
      vertex 87.665 0 -13.688
    endloop
  endfacet
  facet normal 0.707106 -6.32459e-07 0.707107
    outer loop
      vertex 86.312 0 -12.335
      vertex 54.7361 46.5685 19.241
      vertex 53.3831 46.5685 20.594
    endloop
  endfacet
  facet normal 0.5 0.707107 -0.5
    outer loop
      vertex 72.8464 1.6332 -29.7435
      vertex 54.0596 48.2017 17.3276
      vertex 86.9885 1.6332 -15.6014
    endloop
  endfacet
  facet normal 0.707107 3.6202e-08 0.707107
    outer loop
      vertex 50.4542 42.4264 23.5229
      vertex 43.3831 32.4264 30.594
      vertex 86.312 0 -12.335
    endloop
  endfacet
  facet normal -0.520839 0.215741 -0.825943
    outer loop
      vertex 70.2565 0 -31.0965
      vertex 30.9965 55.5221 8.16353
      vertex 31.2715 56.186 8.16353
    endloop
  endfacet
  facet normal 0.862856 0.357409 0.357404
    outer loop
      vertex 87.665 0 -13.688
      vertex 54.0596 48.2017 19.241
      vertex 54.7361 46.5685 19.241
    endloop
  endfacet
  facet normal 0.862856 0.357409 0.357404
    outer loop
      vertex 86.9885 1.6332 -13.688
      vertex 54.0596 48.2017 19.241
      vertex 87.665 0 -13.688
    endloop
  endfacet
  facet normal 0.707107 5.93434e-08 0.707107
    outer loop
      vertex 86.312 0 -12.335
      vertex 43.3831 32.4264 30.594
      vertex 66.312 0 7.66504
    endloop
  endfacet
  facet normal 0.707107 -3.25098e-08 0.707107
    outer loop
      vertex -21.3648 -41.486 -17.7952
      vertex -48.9035 0 9.7435
      vertex -70.2565 0 31.0965
    endloop
  endfacet
  facet normal 0.707107 -2.10692e-08 0.707107
    outer loop
      vertex -48.9035 0 9.7435
      vertex -20.875 -40.7932 -18.285
      vertex -20.36 -40.3666 -18.8
    endloop
  endfacet
  facet normal 0.707107 -1.67683e-08 0.707107
    outer loop
      vertex -48.9035 0 9.7435
      vertex -21.3648 -41.486 -17.7952
      vertex -20.875 -40.7932 -18.285
    endloop
  endfacet
  facet normal 0.862856 0.357405 0.357409
    outer loop
      vertex -48.4252 4.58481e-07 8.58865
      vertex -20.36 -40.3666 -18.8
      vertex -20.2565 -40.1167 -19.2998
    endloop
  endfacet
  facet normal 0.862856 0.357408 0.357405
    outer loop
      vertex -20.36 -40.3666 -18.8
      vertex -48.4252 4.58481e-07 8.58865
      vertex -48.9035 0 9.7435
    endloop
  endfacet
  facet normal 0.862856 0.357406 0.357408
    outer loop
      vertex -48.4252 4.58481e-07 8.58865
      vertex -20.2565 -40.1167 -19.2998
      vertex -20.0584 -40.1167 -19.7781
    endloop
  endfacet
  facet normal -0.281084 -0.678598 0.678599
    outer loop
      vertex -71.2132 -2.3097 29.7435
      vertex -31.6095 -56.9648 -8.50722
      vertex -71.2132 -0.956707 31.0965
    endloop
  endfacet
  facet normal -0.28107 -0.678594 0.678608
    outer loop
      vertex -31.6095 -56.9648 -8.50722
      vertex -71.2132 -2.3097 29.7435
      vertex -31.6216 -56.977 -8.52438
    endloop
  endfacet
  facet normal -0.281085 -0.678598 0.678598
    outer loop
      vertex -31.6216 -56.977 -8.52438
      vertex -71.2132 -2.3097 29.7435
      vertex -72.8464 -1.6332 29.7435
    endloop
  endfacet
  facet normal -0.520841 0.215739 -0.825942
    outer loop
      vertex -43.3831 -32.4264 -30.594
      vertex -65.5535 4.66889e-07 -8.14339
      vertex -43.1029 -31.7499 -30.594
    endloop
  endfacet
  facet normal -0.52084 0.21574 -0.825943
    outer loop
      vertex -65.5535 4.66889e-07 -8.14339
      vertex -43.3831 -32.4264 -30.594
      vertex -66.312 0 -7.66504
    endloop
  endfacet
  facet normal -0.5 -0.707107 0.5
    outer loop
      vertex -72.8464 -1.6332 29.7435
      vertex -86.9885 -1.6332 15.6014
      vertex -54.0596 -48.2017 -17.3276
    endloop
  endfacet
  facet normal 0.816497 0.57735 0
    outer loop
      vertex -20.0584 -40.1167 -19.7781
      vertex -48.4252 4.58481e-07 6.67524
      vertex -48.4252 4.58481e-07 8.58865
    endloop
  endfacet
  facet normal 0.816497 0.57735 -0
    outer loop
      vertex -20.0584 -40.1167 -21.0151
      vertex -48.4252 4.58481e-07 6.67524
      vertex -20.0584 -40.1167 -19.7781
    endloop
  endfacet
  facet normal 0.816495 0.577352 -3.74986e-06
    outer loop
      vertex -48.4252 4.58481e-07 6.67524
      vertex -20.0584 -40.1167 -21.0151
      vertex -19.58 -40.7932 -22.1699
    endloop
  endfacet
  facet normal 0.5 0.707107 -0.5
    outer loop
      vertex -19.58 -40.7932 -22.1699
      vertex -49.1374 4.52821e-07 5.96295
      vertex -48.4252 4.58481e-07 6.67524
    endloop
  endfacet
  facet normal 0.5 0.707107 -0.5
    outer loop
      vertex -49.1374 4.52821e-07 5.96295
      vertex -19.58 -40.7932 -22.1699
      vertex -40.7932 -30.7932 -29.241
    endloop
  endfacet
  facet normal 0.5 0.707107 -0.5
    outer loop
      vertex -40.7932 -30.7932 -29.241
      vertex -62.5673 4.52821e-07 -7.4669
      vertex -49.1374 4.52821e-07 5.96295
    endloop
  endfacet
  facet normal -0.862856 -0.357409 -0.357404
    outer loop
      vertex -54.0596 -48.2017 -19.241
      vertex -87.665 0 13.688
      vertex -54.7361 -46.5685 -19.241
    endloop
  endfacet
  facet normal -0.862856 -0.357409 -0.357404
    outer loop
      vertex -86.9885 -1.6332 13.688
      vertex -87.665 0 13.688
      vertex -54.0596 -48.2017 -19.241
    endloop
  endfacet
  facet normal 0.520837 -0.215743 0.825944
    outer loop
      vertex -70.5367 -0.676494 31.0965
      vertex -31.2715 -56.186 -8.16353
      vertex -70.2565 0 31.0965
    endloop
  endfacet
  facet normal 0.520845 -0.215736 0.825941
    outer loop
      vertex -31.2715 -56.186 -8.16353
      vertex -70.5367 -0.676494 31.0965
      vertex -31.2767 -56.1986 -8.16353
    endloop
  endfacet
  facet normal -0.816497 -0.57735 -0
    outer loop
      vertex -54.0596 -48.2017 -17.3276
      vertex -86.9885 -1.6332 13.688
      vertex -54.0596 -48.2017 -19.241
    endloop
  endfacet
  facet normal -0.816497 -0.57735 0
    outer loop
      vertex -86.9885 -1.6332 13.688
      vertex -54.0596 -48.2017 -17.3276
      vertex -86.9885 -1.6332 15.6014
    endloop
  endfacet
  facet normal 0.707107 5.37033e-08 0.707107
    outer loop
      vertex -70.2565 0 31.0965
      vertex -30.4103 -54.2782 -8.74972
      vertex -21.3648 -41.486 -17.7952
    endloop
  endfacet
  facet normal 0.707106 -5.227e-07 0.707107
    outer loop
      vertex -70.2565 0 31.0965
      vertex -30.875 -54.9353 -8.28504
      vertex -30.4103 -54.2782 -8.74972
    endloop
  endfacet
  facet normal 0.707107 8.88979e-07 0.707106
    outer loop
      vertex -30.875 -54.9353 -8.28504
      vertex -70.2565 0 31.0965
      vertex -30.9965 -55.5221 -8.16353
    endloop
  endfacet
  facet normal -0.281086 -0.678599 0.678598
    outer loop
      vertex -31.6216 -56.977 -8.52438
      vertex -72.8464 -1.6332 29.7435
      vertex -32.8464 -58.2017 -10.2565
    endloop
  endfacet
  facet normal -0.5 -0.707107 0.5
    outer loop
      vertex -32.8464 -58.2017 -10.2565
      vertex -72.8464 -1.6332 29.7435
      vertex -54.0596 -48.2017 -17.3276
    endloop
  endfacet
  facet normal 0.281085 0.678598 -0.678598
    outer loop
      vertex -42.4264 -31.4697 -30.594
      vertex -62.5673 4.52821e-07 -7.4669
      vertex -40.7932 -30.7932 -29.241
    endloop
  endfacet
  facet normal 0.281084 0.678598 -0.678599
    outer loop
      vertex -62.5673 4.52821e-07 -7.4669
      vertex -42.4264 -31.4697 -30.594
      vertex -64.6788 4.62769e-07 -8.34153
    endloop
  endfacet
  facet normal -0.707106 6.32459e-07 -0.707107
    outer loop
      vertex -54.7361 -46.5685 -19.241
      vertex -86.312 0 12.335
      vertex -53.3831 -46.5685 -20.594
    endloop
  endfacet
  facet normal -0.707107 -3.81394e-07 -0.707107
    outer loop
      vertex -86.312 0 12.335
      vertex -54.7361 -46.5685 -19.241
      vertex -87.665 0 13.688
    endloop
  endfacet
  facet normal 0.194945 -0.470635 0.860523
    outer loop
      vertex -71.2132 -0.956707 31.0965
      vertex -31.2767 -56.1986 -8.16353
      vertex -70.5367 -0.676494 31.0965
    endloop
  endfacet
  facet normal 0.194945 -0.470635 0.860523
    outer loop
      vertex -31.2767 -56.1986 -8.16353
      vertex -71.2132 -0.956707 31.0965
      vertex -31.5666 -56.5685 -8.3002
    endloop
  endfacet
  facet normal 0.194944 -0.470635 0.860523
    outer loop
      vertex -31.5666 -56.5685 -8.3002
      vertex -71.2132 -0.956707 31.0965
      vertex -31.6095 -56.9648 -8.50722
    endloop
  endfacet
  facet normal 0.520839 -0.215741 0.825943
    outer loop
      vertex -30.9965 -55.5221 -8.16353
      vertex -70.2565 0 31.0965
      vertex -31.2715 -56.186 -8.16353
    endloop
  endfacet
  facet normal -0.707107 -5.93434e-08 -0.707107
    outer loop
      vertex -43.3831 -32.4264 -30.594
      vertex -86.312 0 12.335
      vertex -66.312 0 -7.66504
    endloop
  endfacet
  facet normal -0.194943 0.470636 -0.860523
    outer loop
      vertex -43.1029 -31.7499 -30.594
      vertex -64.6788 4.62769e-07 -8.34153
      vertex -42.4264 -31.4697 -30.594
    endloop
  endfacet
  facet normal -0.194944 0.470635 -0.860523
    outer loop
      vertex -64.6788 4.62769e-07 -8.34153
      vertex -43.1029 -31.7499 -30.594
      vertex -65.5535 4.66889e-07 -8.14339
    endloop
  endfacet
  facet normal -0.707107 -3.6202e-08 -0.707107
    outer loop
      vertex -53.3831 -46.5685 -20.594
      vertex -86.312 0 12.335
      vertex -50.4542 -42.4264 -23.5229
    endloop
  endfacet
  facet normal -0.707107 -3.6202e-08 -0.707107
    outer loop
      vertex -50.4542 -42.4264 -23.5229
      vertex -86.312 0 12.335
      vertex -43.3831 -32.4264 -30.594
    endloop
  endfacet
  facet normal 0.5 -0.707107 -0.5
    outer loop
      vertex 2.84641 -72.3439 0.256495
      vertex 0.419999 -72.3439 -2.16991
      vertex 10.42 -58.2017 -12.1699
    endloop
  endfacet
  facet normal -0.5 0.707107 0.5
    outer loop
      vertex -30.4103 -54.2782 -8.74972
      vertex -10.42 -54.9353 12.1699
      vertex 19.58 -40.7932 22.1699
    endloop
  endfacet
  facet normal -0.5 0.707107 0.5
    outer loop
      vertex -10.42 -54.9353 12.1699
      vertex -30.4103 -54.2782 -8.74972
      vertex -30.875 -54.9353 -8.28504
    endloop
  endfacet
  facet normal -0.5 -0.707107 0.5
    outer loop
      vertex -10.42 -58.2017 12.1699
      vertex -32.8464 -58.2017 -10.2565
      vertex -2.84641 -72.3439 -0.256495
    endloop
  endfacet
  facet normal 0.5 0.707107 -0.5
    outer loop
      vertex 10.42 -54.9353 -12.1699
      vertex 30.4103 -54.2782 8.74972
      vertex 30.875 -54.9353 8.28504
    endloop
  endfacet
  facet normal 0.5 0.707107 -0.5
    outer loop
      vertex 30.4103 -54.2782 8.74972
      vertex 10.42 -54.9353 -12.1699
      vertex -19.58 -40.7932 -22.1699
    endloop
  endfacet
  facet normal -0.678598 0.281085 0.678598
    outer loop
      vertex -30.875 -54.9353 -8.28504
      vertex -10.2832 -56.5304 12.9674
      vertex -10.42 -54.9353 12.1699
    endloop
  endfacet
  facet normal -0.678598 0.281085 0.678598
    outer loop
      vertex -30.9965 -55.5221 -8.16353
      vertex -10.2832 -56.5304 12.9674
      vertex -30.875 -54.9353 -8.28504
    endloop
  endfacet
  facet normal -0.678598 0.281085 0.678598
    outer loop
      vertex -31.2715 -56.186 -8.16353
      vertex -10.2832 -56.5304 12.9674
      vertex -30.9965 -55.5221 -8.16353
    endloop
  endfacet
  facet normal -0.6786 0.281078 0.6786
    outer loop
      vertex -31.2767 -56.1986 -8.16353
      vertex -10.2832 -56.5304 12.9674
      vertex -31.2715 -56.186 -8.16353
    endloop
  endfacet
  facet normal -0.678599 0.281082 0.678599
    outer loop
      vertex -10.2832 -56.5304 12.9674
      vertex -31.2767 -56.1986 -8.16353
      vertex -10.2674 -56.5685 12.999
    endloop
  endfacet
  facet normal -0.678598 0.281086 0.678598
    outer loop
      vertex -10.2674 -56.5685 12.999
      vertex -31.2767 -56.1986 -8.16353
      vertex -31.5666 -56.5685 -8.3002
    endloop
  endfacet
  facet normal 0.678598 0.281085 -0.678598
    outer loop
      vertex 10.2832 -56.5304 -12.9674
      vertex 30.875 -54.9353 8.28504
      vertex 30.9965 -55.5221 8.16353
    endloop
  endfacet
  facet normal 0.678598 0.281085 -0.678598
    outer loop
      vertex 10.2832 -56.5304 -12.9674
      vertex 30.9965 -55.5221 8.16353
      vertex 31.2767 -56.1986 8.16353
    endloop
  endfacet
  facet normal 0.678598 0.281086 -0.678598
    outer loop
      vertex 10.2674 -56.5685 -12.999
      vertex 31.2767 -56.1986 8.16353
      vertex 31.5666 -56.5685 8.3002
    endloop
  endfacet
  facet normal 0.678598 0.281085 -0.678598
    outer loop
      vertex 30.875 -54.9353 8.28504
      vertex 10.2832 -56.5304 -12.9674
      vertex 10.42 -54.9353 -12.1699
    endloop
  endfacet
  facet normal 0.678599 0.281082 -0.678599
    outer loop
      vertex 31.2767 -56.1986 8.16353
      vertex 10.2674 -56.5685 -12.999
      vertex 10.2832 -56.5304 -12.9674
    endloop
  endfacet
  facet normal 0.5 -0.707107 -0.5
    outer loop
      vertex 32.8464 -58.2017 10.2565
      vertex 2.84641 -72.3439 0.256495
      vertex 10.42 -58.2017 -12.1699
    endloop
  endfacet
  facet normal -0.5 0.707107 0.5
    outer loop
      vertex 19.58 -40.7932 22.1699
      vertex -21.3648 -41.486 -17.7952
      vertex -30.4103 -54.2782 -8.74972
    endloop
  endfacet
  facet normal -0.499998 0.707109 0.499998
    outer loop
      vertex -21.3648 -41.486 -17.7952
      vertex 19.58 -40.7932 22.1699
      vertex -20.875 -40.7932 -18.285
    endloop
  endfacet
  facet normal 0 1 -0
    outer loop
      vertex 20.0584 -40.1167 19.7781
      vertex -20.2565 -40.1167 -19.2998
      vertex 20.0584 -40.1167 21.0151
    endloop
  endfacet
  facet normal 0 1 0
    outer loop
      vertex 20.0663 -40.1167 19.759
      vertex -20.2565 -40.1167 -19.2998
      vertex 20.0584 -40.1167 19.7781
    endloop
  endfacet
  facet normal 0 1 0
    outer loop
      vertex 20.2565 -40.1167 19.2998
      vertex -20.2565 -40.1167 -19.2998
      vertex 20.0663 -40.1167 19.759
    endloop
  endfacet
  facet normal 0 1 0
    outer loop
      vertex 20.2565 -40.1167 19.2998
      vertex -20.0584 -40.1167 -19.7781
      vertex -20.2565 -40.1167 -19.2998
    endloop
  endfacet
  facet normal -0 1 0
    outer loop
      vertex -20.0584 -40.1167 -19.7781
      vertex 20.2565 -40.1167 19.2998
      vertex -20.0584 -40.1167 -21.0151
    endloop
  endfacet
  facet normal -0.357408 -0.862855 0.357408
    outer loop
      vertex -0.419999 -72.3439 2.16991
      vertex -2.84641 -72.3439 -0.256495
      vertex 1.2132 -73.0204 2.16991
    endloop
  endfacet
  facet normal -0.357408 0.862855 0.357408
    outer loop
      vertex 20.0584 -40.1167 21.0151
      vertex -20.875 -40.7932 -18.285
      vertex 19.58 -40.7932 22.1699
    endloop
  endfacet
  facet normal -0.357409 0.862855 0.357409
    outer loop
      vertex 20.0584 -40.1167 21.0151
      vertex -20.36 -40.3666 -18.8
      vertex -20.875 -40.7932 -18.285
    endloop
  endfacet
  facet normal -0.357407 0.862856 0.357407
    outer loop
      vertex -20.36 -40.3666 -18.8
      vertex 20.0584 -40.1167 21.0151
      vertex -20.2565 -40.1167 -19.2998
    endloop
  endfacet
  facet normal 0.678599 -0.281082 -0.678599
    outer loop
      vertex 31.5666 -56.5685 8.3002
      vertex 10.2832 -56.6067 -12.9674
      vertex 10.2674 -56.5685 -12.999
    endloop
  endfacet
  facet normal 0.678598 -0.281085 -0.678598
    outer loop
      vertex 10.42 -58.2017 -12.1699
      vertex 31.5666 -56.5685 8.3002
      vertex 31.6095 -56.9648 8.50722
    endloop
  endfacet
  facet normal 0.678598 -0.281086 -0.678598
    outer loop
      vertex 10.42 -58.2017 -12.1699
      vertex 31.6095 -56.9648 8.50722
      vertex 32.8464 -58.2017 10.2565
    endloop
  endfacet
  facet normal 0.678598 -0.281085 -0.678598
    outer loop
      vertex 31.5666 -56.5685 8.3002
      vertex 10.42 -58.2017 -12.1699
      vertex 10.2832 -56.6067 -12.9674
    endloop
  endfacet
  facet normal 0.357408 -0.862855 -0.357408
    outer loop
      vertex 2.84641 -72.3439 0.256495
      vertex -1.2132 -73.0204 -2.16991
      vertex 0.419999 -72.3439 -2.16991
    endloop
  endfacet
  facet normal -0.5 -0.707107 0.5
    outer loop
      vertex -0.419999 -72.3439 2.16991
      vertex -10.42 -58.2017 12.1699
      vertex -2.84641 -72.3439 -0.256495
    endloop
  endfacet
  facet normal 0.357407 0.862856 -0.357407
    outer loop
      vertex 20.36 -40.3666 18.8
      vertex -20.0584 -40.1167 -21.0151
      vertex 20.2565 -40.1167 19.2998
    endloop
  endfacet
  facet normal 0.357409 0.862855 -0.357409
    outer loop
      vertex 20.875 -40.7932 18.285
      vertex -20.0584 -40.1167 -21.0151
      vertex 20.36 -40.3666 18.8
    endloop
  endfacet
  facet normal 0.357408 0.862855 -0.357408
    outer loop
      vertex -20.0584 -40.1167 -21.0151
      vertex 20.875 -40.7932 18.285
      vertex -19.58 -40.7932 -22.1699
    endloop
  endfacet
  facet normal 0.5 0.707107 -0.5
    outer loop
      vertex -19.58 -40.7932 -22.1699
      vertex 21.3648 -41.486 17.7952
      vertex 30.4103 -54.2782 8.74972
    endloop
  endfacet
  facet normal 0.499998 0.707109 -0.499998
    outer loop
      vertex 21.3648 -41.486 17.7952
      vertex -19.58 -40.7932 -22.1699
      vertex 20.875 -40.7932 18.285
    endloop
  endfacet
  facet normal -0.678599 -0.281082 0.678599
    outer loop
      vertex -31.5666 -56.5685 -8.3002
      vertex -10.2832 -56.6067 12.9674
      vertex -10.2674 -56.5685 12.999
    endloop
  endfacet
  facet normal -0.678598 -0.281085 0.678598
    outer loop
      vertex -10.42 -58.2017 12.1699
      vertex -31.5666 -56.5685 -8.3002
      vertex -31.6095 -56.9648 -8.50722
    endloop
  endfacet
  facet normal -0.678594 -0.28111 0.678592
    outer loop
      vertex -10.42 -58.2017 12.1699
      vertex -31.6095 -56.9648 -8.50722
      vertex -31.6216 -56.977 -8.52438
    endloop
  endfacet
  facet normal -0.678598 -0.281086 0.678598
    outer loop
      vertex -10.42 -58.2017 12.1699
      vertex -31.6216 -56.977 -8.52438
      vertex -32.8464 -58.2017 -10.2565
    endloop
  endfacet
  facet normal -0.678598 -0.281085 0.678598
    outer loop
      vertex -31.5666 -56.5685 -8.3002
      vertex -10.42 -58.2017 12.1699
      vertex -10.2832 -56.6067 12.9674
    endloop
  endfacet
endsolid OpenSCAD_Model
